<?xml version="1.0" standalone="no"?>
<!DOCTYPE svg PUBLIC "-//W3C//DTD SVG 20010904//EN"
 "http://www.w3.org/TR/2001/REC-SVG-20010904/DTD/svg10.dtd">
<svg version="1.0" xmlns="http://www.w3.org/2000/svg"
 width="1000.000000pt" height="1000.000000pt" viewBox="0 0 1000.000000 1000.000000"
 preserveAspectRatio="xMidYMid meet">

<g transform="translate(0.000000,1000.000000) scale(0.100000,-0.100000)"
fill="#000000" stroke="none">
<path d="M5705 8300 c3 -5 8 -10 11 -10 2 0 4 5 4 10 0 6 -5 10 -11 10 -5 0
-7 -4 -4 -10z"/>
<path d="M5375 8260 c-3 -5 -1 -10 4 -10 6 0 11 5 11 10 0 6 -2 10 -4 10 -3 0
-8 -4 -11 -10z"/>
<path d="M5727 8003 c-4 -6 0 -16 8 -23 21 -17 28 -8 11 15 -8 11 -15 14 -19
8z"/>
<path d="M6080 7965 c0 -8 2 -15 4 -15 2 0 6 7 10 15 3 8 1 15 -4 15 -6 0 -10
-7 -10 -15z"/>
<path d="M5615 7940 c3 -5 10 -10 16 -10 5 0 9 5 9 10 0 6 -7 10 -16 10 -8 0
-12 -4 -9 -10z"/>
<path d="M7180 7930 c0 -5 5 -10 10 -10 6 0 10 5 10 10 0 6 -4 10 -10 10 -5 0
-10 -4 -10 -10z"/>
<path d="M5695 7866 c-27 -6 -49 -14 -47 -19 1 -4 2 -18 2 -31 0 -19 5 -24 25
-22 19 1 23 5 19 19 -4 12 0 17 13 17 11 0 24 5 30 11 7 7 14 1 22 -21 6 -18
16 -30 23 -28 18 6 22 28 5 28 -8 0 -21 13 -28 28 -14 28 -15 28 -64 18z"/>
<path d="M6690 7835 c-20 -25 1 -38 36 -24 22 9 25 13 12 16 -10 3 -18 9 -18
14 0 14 -16 11 -30 -6z"/>
<path d="M6541 7771 c-36 -27 -17 -46 20 -19 16 12 29 25 29 30 0 14 -24 8
-49 -11z"/>
<path d="M5620 7760 c0 -5 5 -10 10 -10 6 0 10 5 10 10 0 6 -4 10 -10 10 -5 0
-10 -4 -10 -10z"/>
<path d="M6420 7760 c0 -5 7 -10 15 -10 8 0 15 5 15 10 0 6 -7 10 -15 10 -8 0
-15 -4 -15 -10z"/>
<path d="M7606 7684 c-11 -28 -6 -40 14 -40 11 0 20 6 20 12 0 19 -11 44 -20
44 -4 0 -11 -7 -14 -16z"/>
<path d="M7740 7670 c0 -5 5 -10 10 -10 6 0 10 5 10 10 0 6 -4 10 -10 10 -5 0
-10 -4 -10 -10z"/>
<path d="M7393 7603 c9 -2 23 -2 30 0 6 3 -1 5 -18 5 -16 0 -22 -2 -12 -5z"/>
<path d="M6538 7547 c11 -13 10 -17 -7 -26 -39 -21 -66 -61 -42 -61 5 0 12 9
16 19 3 10 17 22 31 25 19 5 24 12 22 28 -2 12 -10 24 -18 26 -13 4 -13 3 -2
-11z"/>
<path d="M7600 7540 c0 -5 5 -10 10 -10 6 0 10 5 10 10 0 6 -4 10 -10 10 -5 0
-10 -4 -10 -10z"/>
<path d="M6100 7520 c0 -5 5 -10 10 -10 6 0 10 5 10 10 0 6 -4 10 -10 10 -5 0
-10 -4 -10 -10z"/>
<path d="M5880 7510 c0 -5 4 -10 9 -10 6 0 13 5 16 10 3 6 -1 10 -9 10 -9 0
-16 -4 -16 -10z"/>
<path d="M6280 7470 c0 -5 5 -10 11 -10 5 0 7 5 4 10 -3 6 -8 10 -11 10 -2 0
-4 -4 -4 -10z"/>
<path d="M5667 7367 c-9 -24 9 -40 37 -33 14 3 26 11 26 16 0 5 -7 7 -15 4 -8
-4 -17 1 -21 10 -7 19 -20 21 -27 3z"/>
<path d="M8438 7363 c7 -3 16 -2 19 1 4 3 -2 6 -13 5 -11 0 -14 -3 -6 -6z"/>
<path d="M5305 7220 c-4 -6 7 -10 25 -10 18 0 29 4 25 10 -3 6 -15 10 -25 10
-10 0 -22 -4 -25 -10z"/>
<path d="M5685 7170 c-3 -5 3 -10 15 -10 12 0 18 5 15 10 -3 6 -10 10 -15 10
-5 0 -12 -4 -15 -10z"/>
<path d="M3837 7070 c3 -10 8 -19 12 -18 3 0 8 0 11 -1 3 -1 20 -4 39 -6 18
-1 37 -9 42 -16 10 -16 14 -12 23 22 7 32 -22 51 -37 24 -7 -13 -11 -14 -24
-4 -11 10 -16 10 -22 0 -6 -9 -11 -8 -21 4 -17 21 -29 19 -23 -5z"/>
<path d="M4540 7076 c0 -8 5 -18 10 -21 6 -3 10 3 10 14 0 12 -4 21 -10 21 -5
0 -10 -6 -10 -14z"/>
<path d="M3790 7040 c0 -5 7 -10 16 -10 8 0 12 5 9 10 -3 6 -10 10 -16 10 -5
0 -9 -4 -9 -10z"/>
<path d="M8470 7040 c-13 -8 -12 -10 3 -10 9 0 17 5 17 10 0 12 -1 12 -20 0z"/>
<path d="M8590 7038 c0 -9 5 -20 10 -23 13 -8 13 5 0 25 -8 13 -10 13 -10 -2z"/>
<path d="M3767 7023 c-6 -10 10 -53 20 -53 24 1 27 17 7 38 -12 13 -24 19 -27
15z"/>
<path d="M8786 7015 c-3 -8 -1 -15 4 -15 6 0 10 7 10 15 0 8 -2 15 -4 15 -2 0
-6 -7 -10 -15z"/>
<path d="M7430 6960 c0 -5 7 -7 15 -4 8 4 15 8 15 10 0 2 -7 4 -15 4 -8 0 -15
-4 -15 -10z"/>
<path d="M9165 6900 c-10 -11 -13 -20 -8 -20 13 0 38 29 31 35 -3 3 -13 -4
-23 -15z"/>
<path d="M4206 6845 c-3 -8 -1 -15 4 -15 13 0 22 18 11 24 -5 3 -11 -1 -15 -9z"/>
<path d="M4135 6830 c3 -5 8 -10 11 -10 2 0 4 5 4 10 0 6 -5 10 -11 10 -5 0
-7 -4 -4 -10z"/>
<path d="M8775 6810 c3 -5 8 -10 11 -10 2 0 4 5 4 10 0 6 -5 10 -11 10 -5 0
-7 -4 -4 -10z"/>
<path d="M1490 6789 c0 -5 5 -7 10 -4 6 3 10 8 10 11 0 2 -4 4 -10 4 -5 0 -10
-5 -10 -11z"/>
<path d="M1620 6756 c0 -2 7 -7 16 -10 8 -3 12 -2 9 4 -6 10 -25 14 -25 6z"/>
<path d="M1480 6739 c0 -5 5 -7 10 -4 6 3 10 8 10 11 0 2 -4 4 -10 4 -5 0 -10
-5 -10 -11z"/>
<path d="M8575 6736 l-30 -13 42 -7 c47 -8 97 9 72 25 -19 12 -49 10 -84 -5z"/>
<path d="M8673 6691 c-25 -19 -47 -60 -38 -69 3 -4 9 -1 13 5 4 6 24 18 45 26
41 18 45 27 19 44 -14 8 -23 7 -39 -6z"/>
<path d="M8970 6685 c0 -9 -9 -15 -23 -15 -31 0 -38 -9 -26 -31 7 -13 6 -19
-2 -19 -6 0 -13 9 -16 20 -11 43 -115 6 -110 -39 2 -20 -7 -29 -55 -54 -32
-16 -58 -36 -58 -44 0 -11 -8 -14 -29 -11 l-29 4 16 -42 c12 -32 19 -40 34
-36 10 2 18 -1 18 -7 0 -16 -56 -13 -70 4 -15 18 -41 20 -57 4 -6 -6 -22 -17
-35 -23 -12 -6 -23 -18 -23 -26 0 -8 -8 -16 -17 -18 -13 -2 -18 3 -18 17 0 15
-6 21 -21 21 -17 0 -20 5 -17 25 6 27 -9 35 -18 10 -4 -8 -16 -15 -28 -15 -17
0 -18 -2 -6 -10 13 -8 13 -10 -1 -10 -11 0 -16 -9 -16 -27 0 -16 -3 -37 -7
-48 -7 -19 -7 -19 8 -1 9 11 31 19 55 21 23 2 41 2 41 1 0 -13 -104 -66 -129
-66 -19 0 -34 -6 -37 -15 -8 -19 -24 -19 -24 0 0 8 11 17 25 21 28 7 32 30 10
60 -14 18 -14 17 -15 -13 0 -22 -5 -33 -14 -33 -8 0 -17 -8 -19 -17 -3 -10 -3
3 0 28 6 49 -10 76 -22 38 -4 -11 -4 -23 -1 -26 3 -3 -2 -13 -11 -22 -12 -11
-17 -13 -21 -3 -2 6 -8 12 -13 12 -6 0 -7 -4 -4 -10 3 -5 0 -10 -7 -10 -7 0
-20 -11 -29 -25 -8 -14 -35 -35 -59 -47 -24 -13 -46 -28 -48 -35 -2 -8 6 -7
27 3 17 9 31 20 31 25 0 5 7 9 15 9 26 0 17 -18 -22 -45 -21 -14 -32 -25 -25
-25 7 0 31 14 54 30 22 17 47 30 54 30 16 0 77 -51 69 -58 -3 -3 3 -15 14 -26
29 -32 31 -60 4 -64 -16 -2 -23 2 -23 13 0 13 -6 16 -25 11 -14 -4 -34 -2 -45
4 -15 8 -18 8 -14 -3 3 -9 -3 -17 -16 -20 -17 -4 -20 -2 -14 15 5 17 3 19 -14
14 -11 -4 -23 -2 -27 4 -12 19 -25 10 -25 -17 -1 -34 -21 -63 -44 -63 -9 0
-16 -4 -16 -10 0 -5 -7 -10 -15 -10 -10 0 -15 -10 -15 -27 0 -14 -7 -35 -17
-45 -15 -17 -14 -18 20 -18 24 0 39 6 46 18 6 9 11 11 11 5 0 -7 11 -13 24
-13 14 0 37 -5 51 -10 21 -8 25 -13 16 -24 -6 -7 -8 -15 -5 -19 3 -3 -4 -15
-15 -26 -25 -25 -26 -31 -5 -57 15 -19 15 -19 9 2 -8 31 25 42 47 15 9 -12 22
-21 28 -21 7 0 10 -6 7 -14 -4 -9 0 -13 11 -12 10 2 18 14 20 30 3 24 1 26
-22 20 -24 -6 -37 8 -18 20 4 2 7 20 7 39 -1 34 -1 34 29 26 21 -6 33 -5 39 4
6 9 10 9 13 0 3 -7 12 -9 20 -6 10 4 14 -2 14 -21 0 -27 -25 -37 -33 -13 -3 9
-7 9 -21 -2 -15 -13 -14 -15 8 -27 14 -7 33 -11 43 -9 10 2 21 4 26 4 4 1 7 8
7 16 0 18 12 19 28 3 6 -6 15 -9 19 -5 7 8 -19 34 -53 53 -10 6 -19 17 -19 25
-1 21 -15 40 -26 33 -5 -3 -7 -10 -4 -15 4 -5 2 -9 -4 -9 -16 0 -24 21 -12 33
21 21 11 28 -14 10 -15 -11 -22 -25 -19 -35 3 -9 0 -19 -6 -23 -14 -9 -16 -7
-24 34 -6 32 -5 33 19 27 17 -4 27 -2 31 7 3 8 21 14 41 15 21 1 41 9 48 19
12 15 13 15 19 -5 4 -12 18 -30 31 -40 13 -10 25 -29 27 -43 2 -19 9 -24 35
-26 l32 -1 -27 23 c-27 23 -25 48 2 26 11 -9 15 -8 19 3 3 8 14 14 24 12 10
-2 27 0 38 4 19 8 19 8 -5 18 -24 10 -24 11 -2 11 12 1 22 6 22 12 0 7 10 9
28 5 22 -5 24 -4 10 4 -10 6 -18 20 -18 30 0 10 8 24 18 30 16 10 16 10 -2 8
-13 -2 -30 12 -53 44 l-33 46 39 -1 c25 -1 43 -8 50 -19 13 -20 1 -24 -17 -6
-18 18 -27 1 -14 -27 13 -28 32 -34 32 -10 0 8 7 15 15 15 8 0 15 -8 15 -17 0
-34 19 3 24 47 3 25 3 37 0 28 -8 -25 -23 -22 -34 7 -10 26 -24 32 -35 15 -3
-5 -14 -10 -23 -10 -11 0 -5 8 16 20 l33 20 51 -27 c28 -16 60 -33 72 -40 17
-10 22 -9 29 2 11 20 -2 42 -14 24 -5 -9 -9 -10 -9 -2 0 6 -9 9 -21 6 -36 -10
-17 21 22 34 19 7 26 12 17 12 -23 1 -25 59 -3 67 8 4 15 10 15 15 0 6 -8 5
-19 0 -17 -10 -18 -8 -8 13 8 17 14 21 19 13 5 -8 8 -4 8 10 0 12 6 24 13 26
7 4 6 6 -5 6 -22 1 -28 23 -11 42 12 14 11 17 -7 22 -11 3 -20 1 -20 -4 0 -5
-5 -9 -11 -9 -6 0 -9 7 -6 15 4 8 2 17 -3 20 -6 4 -10 17 -10 29 0 21 5 23 41
23 35 0 40 -2 36 -18 -3 -11 -1 -19 4 -19 11 0 15 11 24 63 4 28 11 37 22 35
27 -5 40 -35 25 -59 -16 -25 -5 -41 12 -17 6 9 27 25 46 35 18 10 36 26 38 33
5 13 3 13 -11 1 -21 -17 -22 -3 -2 26 8 12 12 29 8 39 -5 14 -2 16 14 12 17
-4 20 0 21 23 0 16 -1 29 -4 29 -2 0 -4 -7 -4 -15z m-273 -312 c-13 -13 -20
-14 -29 -5 -9 9 -6 14 13 21 31 11 37 5 16 -16z m-277 9 c0 -5 -7 -17 -15 -28
-14 -19 -14 -19 -15 2 0 11 3 24 7 27 9 10 23 9 23 -1z m187 -30 c-12 -2 -26
-8 -31 -13 -6 -5 -24 -9 -40 -8 -17 0 -24 3 -16 6 8 3 22 11 30 18 20 17 63
23 72 10 4 -6 -2 -11 -15 -13z m108 -62 c3 -5 1 -10 -4 -10 -6 0 -11 5 -11 10
0 6 2 10 4 10 3 0 8 -4 11 -10z m-495 -30 c0 -5 -5 -10 -11 -10 -5 0 -7 5 -4
10 3 6 8 10 11 10 2 0 4 -4 4 -10z m-50 -20 c0 -5 -5 -10 -11 -10 -5 0 -7 5
-4 10 3 6 8 10 11 10 2 0 4 -4 4 -10z m314 -141 c-6 -11 -24 -2 -24 11 0 5 7
7 15 4 8 -4 12 -10 9 -15z m-134 -15 c0 -8 -5 -12 -10 -9 -6 4 -8 11 -5 16 9
14 15 11 15 -7z m190 -40 c0 -8 -4 -12 -10 -9 -5 3 -10 10 -10 16 0 5 5 9 10
9 6 0 10 -7 10 -16z m-445 -23 c3 -5 1 -12 -5 -16 -5 -3 -10 1 -10 9 0 18 6
21 15 7z m220 -2 c11 -17 -1 -21 -15 -4 -8 9 -8 15 -2 15 6 0 14 -5 17 -11z
m145 1 c0 -5 -4 -10 -10 -10 -5 0 -10 5 -10 10 0 6 5 10 10 10 6 0 10 -4 10
-10z m37 -6 c-3 -3 -12 -4 -19 -1 -8 3 -5 6 6 6 11 1 17 -2 13 -5z m-41 -52
c-9 -2 -25 -1 -34 3 -15 6 -15 8 3 15 12 4 26 3 34 -4 12 -9 11 -12 -3 -14z
m-321 8 c3 -6 -1 -17 -9 -25 -13 -14 -18 -13 -46 4 -21 12 -27 21 -18 24 23 9
67 7 73 -3z m39 -38 c-6 -4 -13 -12 -15 -19 -3 -8 -9 -9 -19 -3 -12 7 -11 12
5 30 13 14 22 17 29 10 8 -8 8 -13 0 -18z m-6 -73 c-2 -6 -8 -10 -13 -10 -5 0
-11 4 -13 10 -2 6 4 11 13 11 9 0 15 -5 13 -11z"/>
<path d="M8585 6670 c-3 -5 1 -10 10 -10 9 0 13 5 10 10 -3 6 -8 10 -10 10 -2
0 -7 -4 -10 -10z"/>
<path d="M9040 6640 c0 -5 5 -10 11 -10 5 0 7 5 4 10 -3 6 -8 10 -11 10 -2 0
-4 -4 -4 -10z"/>
<path d="M8300 6615 c-10 -12 -10 -15 4 -15 9 0 16 7 16 15 0 8 -2 15 -4 15
-2 0 -9 -7 -16 -15z"/>
<path d="M8500 6620 c0 -5 5 -10 10 -10 6 0 10 5 10 10 0 6 -4 10 -10 10 -5 0
-10 -4 -10 -10z"/>
<path d="M1345 6610 c3 -5 8 -10 11 -10 2 0 4 5 4 10 0 6 -5 10 -11 10 -5 0
-7 -4 -4 -10z"/>
<path d="M8424 6605 c-7 -17 12 -45 30 -45 6 0 4 5 -4 10 -13 9 -13 12 3 21 9
5 17 14 17 19 0 16 -40 11 -46 -5z"/>
<path d="M1680 6580 c0 -5 6 -10 14 -10 8 0 16 -6 19 -12 2 -7 8 -10 12 -6 4
4 2 14 -5 23 -14 17 -40 20 -40 5z"/>
<path d="M8366 6561 c-11 -12 -16 -24 -12 -28 9 -9 39 22 34 37 -2 7 -10 4
-22 -9z"/>
<path d="M8538 6573 c7 -3 16 -2 19 1 4 3 -2 6 -13 5 -11 0 -14 -3 -6 -6z"/>
<path d="M9180 6560 c0 -5 5 -10 11 -10 5 0 7 5 4 10 -3 6 -8 10 -11 10 -2 0
-4 -4 -4 -10z"/>
<path d="M1060 6546 c0 -8 5 -18 10 -21 6 -3 10 1 10 9 0 8 -4 18 -10 21 -5 3
-10 -1 -10 -9z"/>
<path d="M8316 6551 c-12 -5 -15 -10 -9 -14 6 -4 16 0 23 8 14 17 13 17 -14 6z"/>
<path d="M8977 6547 c-6 -17 15 -45 31 -40 6 3 12 0 12 -6 0 -12 32 -14 68 -5
38 11 24 22 -20 17 -42 -6 -43 -6 -25 14 9 11 17 23 17 26 0 13 -78 7 -83 -6z"/>
<path d="M935 6540 c-3 -5 -1 -10 4 -10 6 0 11 5 11 10 0 6 -2 10 -4 10 -3 0
-8 -4 -11 -10z"/>
<path d="M1115 6537 c-12 -9 -14 -16 -7 -21 6 -3 16 3 22 14 13 24 10 25 -15
7z"/>
<path d="M1204 6535 c11 -8 25 -15 30 -15 6 0 2 7 -8 15 -11 8 -25 15 -30 15
-6 0 -2 -7 8 -15z"/>
<path d="M8405 6540 c3 -5 10 -10 16 -10 5 0 9 5 9 10 0 6 -7 10 -16 10 -8 0
-12 -4 -9 -10z"/>
<path d="M1600 6530 c0 -5 5 -10 11 -10 5 0 7 5 4 10 -3 6 -8 10 -11 10 -2 0
-4 -4 -4 -10z"/>
<path d="M3970 6529 c0 -5 5 -7 10 -4 6 3 10 8 10 11 0 2 -4 4 -10 4 -5 0 -10
-5 -10 -11z"/>
<path d="M8335 6510 c-3 -5 -1 -10 4 -10 6 0 11 5 11 10 0 6 -2 10 -4 10 -3 0
-8 -4 -11 -10z"/>
<path d="M1700 6490 c8 -5 20 -10 25 -10 6 0 3 5 -5 10 -8 5 -19 10 -25 10 -5
0 -3 -5 5 -10z"/>
<path d="M4600 6493 c0 -4 5 -15 10 -23 8 -13 10 -13 10 2 0 9 -4 20 -10 23
-5 3 -10 3 -10 -2z"/>
<path d="M8540 6489 c0 -5 5 -7 10 -4 6 3 10 8 10 11 0 2 -4 4 -10 4 -5 0 -10
-5 -10 -11z"/>
<path d="M8931 6490 c-10 -5 -8 -9 4 -14 23 -8 35 -8 35 3 0 13 -25 20 -39 11z"/>
<path d="M9190 6485 c0 -8 5 -15 10 -15 6 0 10 7 10 15 0 8 -4 15 -10 15 -5 0
-10 -7 -10 -15z"/>
<path d="M950 6481 c0 -5 5 -13 10 -16 6 -3 10 -2 10 4 0 5 -4 13 -10 16 -5 3
-10 2 -10 -4z"/>
<path d="M4485 6480 c3 -5 11 -10 16 -10 6 0 7 5 4 10 -3 6 -11 10 -16 10 -6
0 -7 -4 -4 -10z"/>
<path d="M8150 6480 c0 -5 5 -10 10 -10 6 0 10 5 10 10 0 6 -4 10 -10 10 -5 0
-10 -4 -10 -10z"/>
<path d="M8440 6475 c0 -8 2 -15 4 -15 2 0 6 7 10 15 3 8 1 15 -4 15 -6 0 -10
-7 -10 -15z"/>
<path d="M1619 6460 c12 -11 28 -17 35 -12 7 4 3 8 -11 10 -13 2 -23 8 -23 13
0 5 -6 9 -12 9 -7 -1 -2 -9 11 -20z"/>
<path d="M6975 6470 c3 -5 8 -10 11 -10 2 0 4 5 4 10 0 6 -5 10 -11 10 -5 0
-7 -4 -4 -10z"/>
<path d="M4720 6460 c0 -5 -10 -11 -22 -11 -17 -1 -19 -2 -5 -6 23 -6 22 -24
-2 -30 -21 -5 -37 -33 -20 -33 22 0 58 32 52 47 -4 9 1 22 12 29 17 13 17 14
2 14 -9 0 -17 -4 -17 -10z"/>
<path d="M8051 6455 c-33 -18 -45 -41 -26 -49 9 -3 15 0 15 9 0 8 7 15 15 15
8 0 15 6 15 13 0 8 4 7 10 -3 9 -13 11 -13 20 0 5 8 10 18 10 23 0 11 -32 7
-59 -8z"/>
<path d="M7405 6450 c-3 -5 -1 -10 4 -10 6 0 11 5 11 10 0 6 -2 10 -4 10 -3 0
-8 -4 -11 -10z"/>
<path d="M9173 6437 c5 -15 37 -22 37 -9 0 5 -9 12 -21 15 -13 3 -19 1 -16 -6z"/>
<path d="M1470 6419 c7 -11 14 -18 17 -15 8 8 -5 36 -17 36 -7 0 -7 -6 0 -21z"/>
<path d="M8305 6430 c-3 -5 -1 -10 4 -10 6 0 11 5 11 10 0 6 -2 10 -4 10 -3 0
-8 -4 -11 -10z"/>
<path d="M1120 6408 c0 -19 2 -20 10 -8 13 19 13 30 0 30 -5 0 -10 -10 -10
-22z"/>
<path d="M8910 6415 c-8 -9 -22 -12 -43 -8 -30 5 -31 4 -16 -11 14 -16 18 -15
57 2 23 10 39 22 35 25 -10 11 -19 8 -33 -8z"/>
<path d="M1253 6378 c20 -40 30 -40 42 0 4 13 2 22 -4 22 -6 0 -11 -4 -11 -10
0 -5 -4 -10 -10 -10 -5 0 -10 6 -10 14 0 8 -6 16 -13 19 -9 3 -7 -7 6 -35z"/>
<path d="M4163 6400 c-16 -14 -30 -18 -57 -13 -23 4 -36 2 -36 -6 0 -6 10 -10
23 -8 14 1 22 -3 22 -13 0 -9 -7 -14 -17 -12 -22 4 -23 -11 -3 -28 10 -8 15
-9 15 -2 0 6 6 9 14 6 7 -3 16 3 20 13 6 15 8 15 16 3 8 -13 10 -12 10 3 0 12
6 17 18 15 18 -4 46 37 36 53 -9 15 -39 10 -61 -11z m42 -10 c-3 -5 -12 -10
-18 -10 -7 0 -6 4 3 10 19 12 23 12 15 0z"/>
<path d="M8197 6413 c-12 -11 -8 -23 8 -23 8 0 15 7 15 15 0 16 -12 20 -23 8z"/>
<path d="M1330 6403 c8 -4 20 -13 27 -22 8 -11 12 -12 13 -3 0 6 8 12 18 13
11 1 9 4 -8 9 -30 9 -74 12 -50 3z"/>
<path d="M1510 6400 c0 -5 5 -10 10 -10 6 0 10 5 10 10 0 6 -4 10 -10 10 -5 0
-10 -4 -10 -10z"/>
<path d="M4290 6403 c0 -7 -9 -13 -20 -13 -24 0 -26 -9 -3 -25 24 -18 49 7 34
32 -6 10 -11 12 -11 6z"/>
<path d="M1426 6385 c25 -19 34 -19 34 0 0 10 -10 15 -27 15 -26 0 -26 -1 -7
-15z"/>
<path d="M4330 6391 c0 -6 7 -14 15 -17 8 -4 15 -15 15 -25 0 -10 5 -19 10
-19 6 0 10 7 10 15 0 8 15 19 33 25 l32 10 -35 -4 c-20 -2 -45 3 -57 12 -15 9
-23 10 -23 3z"/>
<path d="M4613 6393 c-7 -3 -13 -9 -13 -15 0 -7 4 -7 13 1 10 8 17 7 25 -1 8
-8 12 -9 12 -1 0 13 -20 22 -37 16z"/>
<path d="M4555 6380 c-3 -5 -15 -10 -25 -10 -10 0 -22 -4 -25 -10 -4 -6 6 -10
22 -10 17 0 33 8 41 20 7 11 8 20 3 20 -6 0 -13 -4 -16 -10z"/>
<path d="M3957 6373 c-12 -12 -7 -22 8 -17 8 4 15 10 15 15 0 11 -14 12 -23 2z"/>
<path d="M4024 6366 c-3 -9 -18 -16 -32 -16 -38 0 -14 -19 28 -22 31 -3 35 0
35 21 0 28 -22 40 -31 17z"/>
<path d="M1466 6361 c-4 -5 3 -7 14 -4 23 6 26 13 6 13 -8 0 -17 -4 -20 -9z"/>
<path d="M1387 6341 c-3 -12 -1 -21 3 -21 15 0 23 21 12 32 -6 6 -11 2 -15
-11z"/>
<path d="M3910 6345 c0 -8 5 -15 10 -15 6 0 10 7 10 15 0 8 -4 15 -10 15 -5 0
-10 -7 -10 -15z"/>
<path d="M1218 6343 c-18 -5 -24 -28 -10 -37 13 -8 29 7 29 27 0 9 -1 16 -1
16 -1 -1 -9 -3 -18 -6z"/>
<path d="M1315 6340 c3 -5 10 -10 16 -10 5 0 9 5 9 10 0 6 -7 10 -16 10 -8 0
-12 -4 -9 -10z"/>
<path d="M4470 6340 c-8 -5 -12 -12 -9 -15 4 -3 12 1 19 10 14 17 11 19 -10 5z"/>
<path d="M4334 6312 c5 -13 1 -22 -10 -26 -13 -5 -14 -9 -4 -21 7 -8 16 -13
20 -10 11 7 10 64 -2 71 -6 4 -8 -1 -4 -14z"/>
<path d="M8098 6314 c-16 -8 -28 -19 -28 -25 0 -17 35 -9 48 11 13 21 37 27
45 10 3 -6 4 -5 3 2 -4 18 -36 19 -68 2z"/>
<path d="M8780 6310 c0 -5 7 -10 15 -10 8 0 15 5 15 10 0 6 -7 10 -15 10 -8 0
-15 -4 -15 -10z"/>
<path d="M1378 6283 c6 -2 18 -2 25 0 6 3 1 5 -13 5 -14 0 -19 -2 -12 -5z"/>
<path d="M1446 6281 c5 -5 34 -11 64 -15 47 -4 50 -4 20 5 -54 15 -95 20 -84
10z"/>
<path d="M7821 6261 c-23 -46 -23 -51 -8 -51 8 0 18 11 21 25 4 14 13 25 21
25 21 0 19 17 -3 22 -12 4 -22 -3 -31 -21z"/>
<path d="M7675 6250 c-3 -5 -14 -10 -23 -10 -9 0 -28 -10 -42 -21 -27 -22 -20
-21 48 6 23 9 42 21 42 26 0 12 -17 11 -25 -1z"/>
<path d="M3280 6239 c0 -5 5 -7 10 -4 6 3 10 8 10 11 0 2 -4 4 -10 4 -5 0 -10
-5 -10 -11z"/>
<path d="M3740 6184 c0 -14 -4 -23 -8 -20 -9 6 -134 -57 -133 -67 1 -9 4 -9
57 -1 48 7 79 29 101 72 13 24 10 42 -8 42 -5 0 -9 -12 -9 -26z"/>
<path d="M7700 6185 c-7 -8 -23 -15 -36 -15 -21 0 -52 -35 -41 -46 6 -7 77 33
102 57 16 16 17 19 3 19 -8 0 -21 -7 -28 -15z"/>
<path d="M7558 6183 c7 -3 16 -2 19 1 4 3 -2 6 -13 5 -11 0 -14 -3 -6 -6z"/>
<path d="M7486 6154 c-9 -23 -4 -24 17 -2 13 14 14 18 3 18 -8 0 -17 -7 -20
-16z"/>
<path d="M7985 6157 c-16 -5 -39 -16 -50 -23 -11 -8 -27 -14 -37 -14 -10 0
-19 -6 -19 -12 -3 -29 -4 -78 -2 -78 9 0 93 66 93 72 0 5 12 20 27 34 31 29
28 35 -12 21z"/>
<path d="M7436 6141 c-19 -21 -20 -31 -3 -31 15 0 39 37 28 44 -5 3 -16 -3
-25 -13z"/>
<path d="M7525 6115 c-16 -13 -37 -25 -45 -25 -8 0 -21 -4 -29 -9 -9 -6 2 -8
30 -8 35 1 51 8 79 34 28 28 31 33 15 33 -11 0 -33 -11 -50 -25z"/>
<path d="M3480 6108 c0 -4 9 -8 20 -8 11 0 20 4 20 8 0 4 -9 8 -20 8 -11 0
-20 -4 -20 -8z"/>
<path d="M8667 6104 c6 -15 -33 -52 -50 -46 -5 1 -7 -7 -5 -19 2 -13 9 -24 17
-27 9 -3 11 0 6 8 -4 7 5 23 24 40 28 26 34 60 10 60 -4 0 -6 -7 -2 -16z"/>
<path d="M7640 6084 l-25 -15 25 7 c28 7 35 12 29 18 -2 2 -15 -2 -29 -10z"/>
<path d="M7986 6081 c-20 -22 -13 -49 8 -29 16 17 28 48 17 48 -4 0 -16 -9
-25 -19z"/>
<path d="M7559 6074 c-11 -13 -11 -20 1 -42 30 -51 59 -30 37 27 -13 35 -19
38 -38 15z"/>
<path d="M7707 6083 c-4 -3 -7 -14 -7 -24 0 -11 -11 -20 -30 -24 -32 -7 -56
-38 -44 -57 5 -7 10 -4 15 10 5 12 15 22 24 22 9 0 38 18 66 40 l51 40 -34 0
c-19 0 -38 -3 -41 -7z"/>
<path d="M7380 6045 c0 -15 2 -17 9 -6 5 7 15 17 22 22 10 6 7 8 -9 6 -15 -1
-22 -8 -22 -22z"/>
<path d="M7110 6050 c0 -5 5 -10 10 -10 6 0 10 5 10 10 0 6 -4 10 -10 10 -5 0
-10 -4 -10 -10z"/>
<path d="M7496 6031 c-4 -7 -5 -15 -2 -18 9 -9 19 4 14 18 -4 11 -6 11 -12 0z"/>
<path d="M7859 5991 c-10 -15 -16 -17 -26 -9 -17 14 -31 2 -16 -13 12 -12 56
-2 48 11 -3 5 1 10 7 13 7 2 10 8 6 12 -4 4 -12 -2 -19 -14z"/>
<path d="M7590 5981 c0 -6 5 -13 10 -16 6 -3 10 1 10 9 0 9 -4 16 -10 16 -5 0
-10 -4 -10 -9z"/>
<path d="M8300 5953 c0 -10 4 -14 8 -8 4 6 11 13 16 18 5 4 2 7 -7 7 -10 0
-17 -8 -17 -17z"/>
<path d="M8585 5960 c4 -6 11 -8 16 -5 14 9 11 15 -7 15 -8 0 -12 -5 -9 -10z"/>
<path d="M7497 5933 c-4 -3 -7 -11 -7 -17 0 -6 5 -5 12 2 6 6 9 14 7 17 -3 3
-9 2 -12 -2z"/>
<path d="M1011 5925 c0 -13 28 -50 33 -44 3 2 -4 15 -14 29 -11 14 -20 21 -19
15z"/>
<path d="M8336 5905 c4 -8 8 -15 10 -15 2 0 4 7 4 15 0 8 -4 15 -10 15 -5 0
-7 -7 -4 -15z"/>
<path d="M7400 5899 c0 -5 5 -7 10 -4 6 3 10 8 10 11 0 2 -4 4 -10 4 -5 0 -10
-5 -10 -11z"/>
<path d="M8520 5900 c0 -5 5 -10 11 -10 5 0 7 5 4 10 -3 6 -8 10 -11 10 -2 0
-4 -4 -4 -10z"/>
<path d="M7442 5879 c-15 -24 -15 -29 1 -29 19 0 39 37 23 43 -7 3 -18 -3 -24
-14z"/>
<path d="M1210 5875 c0 -2 10 -10 23 -16 20 -11 21 -11 8 4 -13 16 -31 23 -31
12z"/>
<path d="M7657 5873 c-13 -12 -7 -23 13 -23 11 0 20 7 20 15 0 15 -21 21 -33
8z"/>
<path d="M7977 5865 c-4 -8 -2 -17 3 -20 6 -4 10 3 10 14 0 25 -6 27 -13 6z"/>
<path d="M1125 5860 c3 -5 11 -10 16 -10 6 0 7 5 4 10 -3 6 -11 10 -16 10 -6
0 -7 -4 -4 -10z"/>
<path d="M8046 5861 c-17 -6 -17 -8 -3 -14 8 -3 21 1 27 9 13 15 6 17 -24 5z"/>
<path d="M1050 5850 c0 -5 4 -10 9 -10 6 0 13 5 16 10 3 6 -1 10 -9 10 -9 0
-16 -4 -16 -10z"/>
<path d="M1313 5845 c-16 -8 -19 -15 -12 -28 7 -11 6 -17 -1 -17 -5 0 -10 -7
-10 -15 0 -8 5 -15 10 -15 6 0 10 7 10 15 0 8 9 20 20 27 37 23 22 53 -17 33z"/>
<path d="M7070 5830 c0 -5 5 -10 11 -10 5 0 7 5 4 10 -3 6 -8 10 -11 10 -2 0
-4 -4 -4 -10z"/>
<path d="M7180 5805 c-19 -19 -29 -35 -24 -35 6 0 19 9 29 20 10 11 22 17 26
14 5 -3 9 4 9 15 0 12 -1 21 -3 21 -2 0 -18 -16 -37 -35z"/>
<path d="M7580 5829 c0 -6 -6 -9 -13 -6 -7 3 -24 -4 -38 -14 -13 -10 -28 -19
-33 -19 -5 0 -15 -8 -22 -17 -10 -14 -28 -18 -91 -19 -44 0 -83 -3 -89 -6 -5
-3 -21 -8 -36 -12 -16 -3 -28 -11 -28 -16 0 -6 -5 -10 -12 -10 -6 0 -1 11 12
25 23 25 23 25 4 40 -25 19 -27 19 -43 -6 -10 -18 -10 -23 0 -30 11 -6 10 -12
-4 -27 -9 -10 -17 -26 -17 -35 0 -9 -7 -17 -15 -17 -20 0 -19 -16 2 -24 15 -6
75 27 111 62 19 18 32 15 32 -7 0 -35 18 -32 24 4 6 32 26 59 26 36 0 -6 7
-11 15 -11 8 0 15 -4 15 -10 0 -17 18 -11 39 12 13 13 32 21 51 20 24 0 30 3
26 14 -3 9 1 14 13 14 10 0 24 7 31 15 8 9 21 13 34 10 17 -5 18 -4 6 4 -13 9
-13 11 1 11 9 0 22 7 29 15 10 13 9 15 -9 15 -11 0 -21 -5 -21 -11z"/>
<path d="M7345 5820 c-3 -5 -2 -10 4 -10 5 0 13 5 16 10 3 6 2 10 -4 10 -5 0
-13 -4 -16 -10z"/>
<path d="M7400 5819 c0 -5 5 -7 10 -4 6 3 10 8 10 11 0 2 -4 4 -10 4 -5 0 -10
-5 -10 -11z"/>
<path d="M7470 5820 c-12 -8 -11 -10 8 -10 12 0 22 5 22 10 0 13 -11 13 -30 0z"/>
<path d="M1049 5804 c19 -8 37 -12 40 -9 9 10 -22 25 -49 24 -23 0 -22 -1 9
-15z"/>
<path d="M7933 5809 c-9 -9 -8 -15 3 -27 19 -19 27 -11 16 17 -6 16 -10 19
-19 10z"/>
<path d="M7985 5810 c3 -5 8 -10 11 -10 2 0 4 5 4 10 0 6 -5 10 -11 10 -5 0
-7 -4 -4 -10z"/>
<path d="M1160 5795 c-14 -16 -10 -18 14 -9 9 3 16 10 16 15 0 14 -16 11 -30
-6z"/>
<path d="M7380 5790 c0 -5 10 -10 23 -10 18 0 19 2 7 10 -19 13 -30 13 -30 0z"/>
<path d="M7105 5776 c-10 -6 -25 -17 -33 -24 -11 -10 -17 -10 -28 -1 -8 7 -15
10 -17 8 -17 -30 -47 -97 -48 -109 -2 -14 10 -67 18 -82 2 -4 10 -5 19 -1 13
5 13 8 -2 24 -16 18 -11 44 7 34 5 -4 9 -2 9 2 0 5 16 17 35 27 36 20 43 34
24 53 -8 8 -8 13 0 17 6 4 11 1 11 -6 0 -14 23 17 33 44 8 23 -3 28 -28 14z
m-55 -80 c0 -3 -4 -8 -10 -11 -5 -3 -10 -1 -10 4 0 6 5 11 10 11 6 0 10 -2 10
-4z m-35 -36 c3 -5 1 -10 -4 -10 -6 0 -11 5 -11 10 0 6 2 10 4 10 3 0 8 -4 11
-10z"/>
<path d="M6975 5770 c-3 -5 -1 -10 4 -10 6 0 11 5 11 10 0 6 -2 10 -4 10 -3 0
-8 -4 -11 -10z"/>
<path d="M1410 5760 c0 -5 4 -10 9 -10 6 0 13 5 16 10 3 6 -1 10 -9 10 -9 0
-16 -4 -16 -10z"/>
<path d="M1466 5756 c3 -9 11 -16 16 -16 13 0 5 23 -10 28 -7 2 -10 -2 -6 -12z"/>
<path d="M6902 5743 c-14 -19 -28 -27 -45 -25 -17 1 -30 -6 -42 -24 -15 -23
-18 -24 -29 -9 -11 15 -19 15 -72 5 -50 -10 -63 -17 -78 -43 -11 -18 -18 -44
-17 -59 1 -16 -2 -28 -8 -28 -6 0 -11 -6 -11 -14 0 -8 -7 -16 -15 -20 -8 -3
-15 -12 -15 -20 0 -8 -12 -23 -27 -34 -23 -17 -26 -23 -15 -33 16 -17 15 -38
-2 -71 -12 -22 -12 -33 -3 -53 12 -25 31 -33 41 -16 3 4 -3 16 -14 26 -24 22
-26 35 -4 35 9 0 18 -9 21 -20 8 -29 24 -25 18 5 -3 14 -8 37 -11 52 -5 24 -4
25 12 12 16 -13 17 -12 12 9 -4 12 -2 22 2 22 5 0 10 -19 12 -42 2 -23 8 -43
13 -45 16 -5 16 68 0 93 -14 21 -14 25 2 43 13 15 20 18 30 9 7 -6 13 -6 13
-1 0 5 14 17 30 27 17 10 30 25 29 34 -3 32 1 41 15 36 8 -3 17 -1 21 5 10 17
22 13 28 -9 5 -21 26 -28 28 -10 1 6 2 16 3 22 1 16 36 24 36 9 0 -17 15 -13
59 16 32 21 40 31 35 46 -4 11 -1 23 7 28 12 7 12 13 -1 35 -21 38 -34 39 -58
7z m13 -64 c8 -25 -3 -39 -15 -19 -8 12 -10 10 -10 -7 0 -13 -4 -23 -10 -23
-15 0 -12 57 3 63 21 9 26 7 32 -14z"/>
<path d="M1397 5733 c-4 -3 -7 -11 -7 -17 0 -6 5 -5 12 2 6 6 9 14 7 17 -3 3
-9 2 -12 -2z"/>
<path d="M6650 5730 c0 -6 7 -10 15 -10 8 0 15 2 15 4 0 2 -7 6 -15 10 -8 3
-15 1 -15 -4z"/>
<path d="M1330 5710 c0 -5 5 -10 11 -10 5 0 7 5 4 10 -3 6 -8 10 -11 10 -2 0
-4 -4 -4 -10z"/>
<path d="M1516 5643 c-4 -10 -4 -14 0 -10 4 4 13 -1 20 -11 12 -15 13 -15 14
-1 0 9 -6 22 -14 28 -11 9 -15 8 -20 -6z"/>
<path d="M1620 5610 c0 -8 -8 -10 -25 -6 -14 4 -25 2 -25 -4 0 -5 5 -10 10
-10 6 0 10 -11 10 -25 0 -14 5 -25 10 -25 6 0 10 7 10 15 0 8 9 15 19 15 29 0
33 15 11 35 -13 12 -20 14 -20 5z"/>
<path d="M7080 5591 c0 -6 5 -13 10 -16 6 -3 10 1 10 9 0 9 -4 16 -10 16 -5 0
-10 -4 -10 -9z"/>
<path d="M7143 5575 c-9 -25 4 -29 17 -6 7 15 7 21 0 21 -6 0 -13 -7 -17 -15z"/>
<path d="M6480 5561 c0 -12 46 -41 54 -34 12 12 6 23 -14 23 -11 0 -20 5 -20
10 0 6 -4 10 -10 10 -5 0 -10 -4 -10 -9z"/>
<path d="M2220 5549 c0 -5 5 -7 10 -4 6 3 10 8 10 11 0 2 -4 4 -10 4 -5 0 -10
-5 -10 -11z"/>
<path d="M6450 5515 c0 -9 6 -12 15 -9 8 4 15 10 15 15 0 5 -7 9 -15 9 -8 0
-15 -7 -15 -15z"/>
<path d="M7050 5520 l-35 -7 25 -11 c14 -6 19 -11 12 -11 -7 -1 -21 -8 -30
-18 -9 -9 -12 -14 -7 -12 46 21 64 34 68 50 3 11 4 18 4 18 -1 -1 -18 -5 -37
-9z"/>
<path d="M6235 5470 c-3 -5 -1 -10 4 -10 6 0 11 5 11 10 0 6 -2 10 -4 10 -3 0
-8 -4 -11 -10z"/>
<path d="M6475 5470 c3 -5 10 -10 16 -10 5 0 9 5 9 10 0 6 -7 10 -16 10 -8 0
-12 -4 -9 -10z"/>
<path d="M2800 5466 c0 -2 7 -6 15 -10 8 -3 15 -1 15 4 0 6 -7 10 -15 10 -8 0
-15 -2 -15 -4z"/>
<path d="M6363 5448 c-23 -11 -30 -32 -15 -42 12 -7 39 18 39 37 0 9 -1 17 -1
16 -1 0 -11 -5 -23 -11z"/>
<path d="M6950 5456 c0 -2 7 -7 16 -10 8 -3 12 -2 9 4 -6 10 -25 14 -25 6z"/>
<path d="M6670 5430 c0 -5 5 -10 10 -10 6 0 10 5 10 10 0 6 -4 10 -10 10 -5 0
-10 -4 -10 -10z"/>
<path d="M2312 5413 c-6 -2 -10 -9 -7 -13 7 -11 35 -2 35 11 0 10 -8 10 -28 2z"/>
<path d="M6096 5411 c-4 -5 3 -7 14 -4 23 6 26 13 6 13 -8 0 -17 -4 -20 -9z"/>
<path d="M6410 5410 c-13 -8 -13 -10 2 -10 9 0 20 5 23 10 8 13 -5 13 -25 0z"/>
<path d="M6785 5409 c-4 -6 -5 -13 -2 -16 7 -7 27 6 27 18 0 12 -17 12 -25 -2z"/>
<path d="M2850 5399 c0 -5 5 -7 10 -4 6 3 10 8 10 11 0 2 -4 4 -10 4 -5 0 -10
-5 -10 -11z"/>
<path d="M2890 5395 c0 -8 9 -15 20 -15 11 0 20 7 20 15 0 8 -9 15 -20 15 -11
0 -20 -7 -20 -15z"/>
<path d="M6490 5400 c-9 -6 -10 -10 -3 -10 6 0 15 5 18 10 8 12 4 12 -15 0z"/>
<path d="M8886 5395 c-3 -10 -2 -23 4 -29 15 -15 22 -2 12 24 -8 21 -9 22 -16
5z"/>
<path d="M6652 5367 c-2 -59 -26 -90 -79 -104 -43 -11 -52 -10 -85 7 -20 10
-62 20 -92 22 -42 2 -56 7 -56 18 0 8 -4 22 -10 30 -7 12 -12 12 -29 -4 -12
-11 -21 -27 -21 -38 0 -22 -9 -23 -25 -2 -11 15 -14 15 -38 -1 -24 -16 -28
-16 -43 -1 -20 20 -31 14 -39 -24 -4 -17 -13 -30 -21 -30 -8 0 -14 -7 -14 -15
0 -25 -19 -17 -35 16 -13 25 -21 30 -40 25 -15 -4 -25 -1 -28 8 -8 20 53 42
65 24 6 -10 8 -10 8 0 0 7 -7 15 -16 19 -15 6 -15 7 1 19 25 19 9 37 -18 20
-12 -8 -41 -17 -64 -21 -30 -5 -40 -10 -36 -21 3 -8 -1 -14 -11 -14 -21 0 -20
-13 2 -33 23 -21 32 -21 32 -2 0 8 5 15 11 15 5 0 7 -5 4 -10 -10 -16 15 -40
41 -40 13 0 28 -9 34 -20 7 -13 21 -20 40 -20 16 0 31 -4 34 -9 10 -16 56 -9
67 10 6 12 21 19 41 19 27 0 30 3 26 25 -6 29 16 34 48 10 25 -19 32 -19 30 2
0 12 7 19 22 21 19 3 22 -1 22 -28 0 -21 4 -30 13 -27 6 2 11 10 10 16 -4 15
10 14 26 -1 10 -11 15 -9 26 6 15 20 37 14 29 -9 -3 -7 -1 -22 5 -32 10 -17
10 -16 11 3 0 17 6 22 25 20 16 0 23 -6 20 -13 -2 -7 -1 -13 2 -13 11 0 53 51
53 64 0 6 4 5 9 -3 12 -18 31 -5 31 20 0 15 6 20 23 18 27 -3 57 10 57 24 0 6
7 19 17 29 17 19 10 39 -8 21 -7 -7 -18 -4 -36 13 -34 32 -40 30 -41 -9z m53
-57 c-3 -5 -10 -10 -16 -10 -5 0 -9 5 -9 10 0 6 7 10 16 10 8 0 12 -4 9 -10z
m-535 -101 c0 -18 -2 -19 -15 -9 -15 12 -12 30 6 30 5 0 9 -10 9 -21z"/>
<path d="M2068 5372 c-29 -6 -20 -22 12 -22 17 0 30 4 30 9 0 12 -21 18 -42
13z"/>
<path d="M6248 5368 c-15 -11 -15 -15 -2 -26 11 -11 14 -10 14 3 0 8 5 15 10
15 6 0 10 5 10 10 0 14 -13 13 -32 -2z"/>
<path d="M6836 5371 c-4 -7 -5 -15 -2 -18 9 -9 19 4 14 18 -4 11 -6 11 -12 0z"/>
<path d="M6966 5363 c-6 -14 -5 -15 5 -6 7 7 10 15 7 18 -3 3 -9 -2 -12 -12z"/>
<path d="M6920 5351 c0 -12 5 -21 10 -21 6 0 10 6 10 14 0 8 -4 18 -10 21 -5
3 -10 -3 -10 -14z"/>
<path d="M6394 5347 c-8 -5 -22 -6 -29 -3 -21 8 -28 -11 -7 -19 26 -11 72 -14
66 -4 -3 5 9 6 27 2 28 -5 31 -4 22 12 -11 20 -54 26 -79 12z"/>
<path d="M8907 5329 c-13 -15 -14 -19 -3 -19 17 0 40 26 28 34 -5 3 -16 -4
-25 -15z"/>
<path d="M8980 5325 c0 -8 4 -15 10 -15 5 0 7 7 4 15 -4 8 -8 15 -10 15 -2 0
-4 -7 -4 -15z"/>
<path d="M2130 5322 c0 -13 40 -52 53 -52 7 0 4 5 -5 11 -10 5 -18 16 -18 23
0 8 -7 16 -15 20 -8 3 -15 2 -15 -2z"/>
<path d="M2508 5313 c7 -3 16 -2 19 1 4 3 -2 6 -13 5 -11 0 -14 -3 -6 -6z"/>
<path d="M6590 5310 c-8 -5 -12 -11 -9 -14 3 -3 14 1 25 9 21 16 8 20 -16 5z"/>
<path d="M9070 5310 c0 -5 5 -10 11 -10 5 0 7 5 4 10 -3 6 -8 10 -11 10 -2 0
-4 -4 -4 -10z"/>
<path d="M6750 5289 c0 -5 5 -7 10 -4 6 3 10 8 10 11 0 2 -4 4 -10 4 -5 0 -10
-5 -10 -11z"/>
<path d="M2230 5274 c0 -7 27 -34 35 -34 3 0 1 9 -5 20 -10 18 -30 28 -30 14z"/>
<path d="M2286 5265 c4 -8 8 -15 10 -15 2 0 4 7 4 15 0 8 -4 15 -10 15 -5 0
-7 -7 -4 -15z"/>
<path d="M6850 5270 c0 -5 7 -10 16 -10 8 0 12 5 9 10 -3 6 -10 10 -16 10 -5
0 -9 -4 -9 -10z"/>
<path d="M2870 5246 c0 -8 -3 -23 -6 -33 -6 -15 -4 -16 7 -5 20 19 41 14 64
-14 15 -19 28 -25 45 -22 l25 4 -26 11 c-14 6 -41 25 -60 42 -37 34 -49 38
-49 17z"/>
<path d="M3000 5245 c0 -8 2 -15 4 -15 2 0 11 -3 20 -6 23 -9 20 9 -4 24 -17
10 -20 10 -20 -3z"/>
<path d="M6794 5245 c-17 -13 -17 -14 -2 -15 9 0 20 5 23 11 11 17 0 20 -21 4z"/>
<path d="M5700 5234 c0 -8 5 -12 10 -9 6 3 10 10 10 16 0 5 -4 9 -10 9 -5 0
-10 -7 -10 -16z"/>
<path d="M8920 5230 c-6 -11 -9 -20 -8 -20 2 0 11 9 21 20 9 11 13 20 7 20 -5
0 -14 -9 -20 -20z"/>
<path d="M2317 5223 c5 -12 3 -14 -7 -8 -9 5 -11 4 -6 -4 6 -9 11 -9 22 0 14
11 10 29 -6 29 -5 0 -6 -7 -3 -17z"/>
<path d="M5922 5210 c-20 -32 -14 -48 19 -55 39 -9 63 10 37 29 -10 7 -18 21
-18 30 0 22 -23 20 -38 -4z"/>
<path d="M2345 5200 c-19 -8 -19 -9 2 -9 12 -1 25 4 28 9 7 12 -2 12 -30 0z"/>
<path d="M6680 5200 c0 -4 -9 -6 -20 -3 -12 3 -22 -1 -26 -11 -8 -21 -24 -21
-24 1 0 15 -2 14 -15 -4 -8 -12 -12 -28 -9 -36 3 -8 1 -18 -5 -22 -6 -3 -11
-1 -11 4 0 6 -4 11 -10 11 -5 0 -10 -10 -10 -23 0 -13 -5 -28 -12 -35 -9 -9
-9 -12 1 -12 9 0 12 -12 9 -40 -2 -25 0 -39 7 -37 5 2 10 12 11 23 2 34 4 37
19 24 12 -10 15 -10 15 3 0 8 -9 17 -21 20 -12 3 -18 10 -14 16 3 6 11 9 16 6
5 -4 9 -1 9 5 0 7 8 9 19 5 14 -4 23 0 31 15 6 12 21 20 36 20 18 0 24 4 21
13 -3 9 8 19 29 28 59 22 60 35 4 37 -28 0 -50 -3 -50 -8z"/>
<path d="M8875 5190 c3 -5 8 -10 11 -10 2 0 4 5 4 10 0 6 -5 10 -11 10 -5 0
-7 -4 -4 -10z"/>
<path d="M3020 5176 c0 -9 7 -16 16 -16 17 0 14 22 -4 28 -7 2 -12 -3 -12 -12z"/>
<path d="M5860 5180 c0 -5 5 -10 10 -10 6 0 10 5 10 10 0 6 -4 10 -10 10 -5 0
-10 -4 -10 -10z"/>
<path d="M2440 5166 c0 -9 8 -16 20 -16 11 0 20 5 20 12 0 6 -3 8 -7 5 -3 -4
-12 -2 -20 4 -10 9 -13 8 -13 -5z"/>
<path d="M8940 5170 c0 -5 5 -10 11 -10 5 0 7 5 4 10 -3 6 -8 10 -11 10 -2 0
-4 -4 -4 -10z"/>
<path d="M5550 5145 c7 -8 10 -22 6 -30 -3 -9 0 -15 9 -15 20 0 19 25 -1 44
-20 20 -30 21 -14 1z"/>
<path d="M6370 5141 c-10 -20 -15 -21 -126 -22 -28 -1 -30 -3 -25 -27 3 -18 6
-21 9 -10 2 11 13 16 33 16 36 -1 48 -15 21 -26 -14 -5 -17 -12 -12 -27 7 -19
7 -19 19 3 6 12 19 22 27 22 9 0 25 11 36 25 11 14 25 25 32 25 6 0 12 9 12
20 0 25 -12 26 -26 1z"/>
<path d="M5690 5130 c0 -18 3 -19 20 -10 11 6 20 15 20 20 0 6 -9 10 -20 10
-13 0 -20 -7 -20 -20z"/>
<path d="M8980 5130 c0 -5 5 -10 10 -10 6 0 10 5 10 10 0 6 -4 10 -10 10 -5 0
-10 -4 -10 -10z"/>
<path d="M3425 5120 c-3 -6 1 -7 9 -4 18 7 21 14 7 14 -6 0 -13 -4 -16 -10z"/>
<path d="M5445 5110 c3 -5 8 -10 11 -10 2 0 4 5 4 10 0 6 -5 10 -11 10 -5 0
-7 -4 -4 -10z"/>
<path d="M2995 5100 c3 -5 8 -10 11 -10 2 0 4 5 4 10 0 6 -5 10 -11 10 -5 0
-7 -4 -4 -10z"/>
<path d="M5895 5100 c-8 -14 3 -30 21 -30 16 0 16 2 8 24 -7 18 -20 21 -29 6z"/>
<path d="M6089 5103 c0 -5 -3 -29 -5 -56 l-5 -48 28 7 c38 9 44 14 37 26 -5 7
-1 9 9 5 10 -3 17 -2 17 3 0 6 7 10 15 10 8 0 15 4 15 9 0 21 -23 22 -60 2
l-40 -21 0 25 c0 14 5 25 10 25 6 0 10 5 10 10 0 11 -30 14 -31 3z"/>
<path d="M5245 5090 c-3 -5 -1 -10 4 -10 6 0 11 5 11 10 0 6 -2 10 -4 10 -3 0
-8 -4 -11 -10z"/>
<path d="M6396 5091 c-4 -6 -4 -26 -1 -45 l7 -34 41 18 c23 11 43 24 45 29 2
6 11 11 20 11 15 1 15 2 -1 14 -14 11 -24 11 -47 3 -17 -6 -30 -17 -30 -24 0
-7 -7 -13 -15 -13 -18 0 -20 17 -2 23 9 3 9 8 1 17 -8 8 -14 8 -18 1z"/>
<path d="M5640 5075 c-21 -25 -1 -31 23 -7 17 18 18 22 5 22 -8 0 -21 -7 -28
-15z"/>
<path d="M5837 5070 c-6 -25 9 -36 29 -20 11 10 12 16 3 26 -16 19 -26 17 -32
-6z"/>
<path d="M3000 5065 c0 -8 5 -15 10 -15 6 0 10 7 10 15 0 8 -4 15 -10 15 -5 0
-10 -7 -10 -15z"/>
<path d="M5543 5063 c-14 -5 -18 -33 -5 -33 14 1 42 27 35 33 -7 8 -12 8 -30
0z"/>
<path d="M3408 5053 c7 -3 16 -2 19 1 4 3 -2 6 -13 5 -11 0 -14 -3 -6 -6z"/>
<path d="M5140 5050 c0 -5 4 -10 9 -10 6 0 13 5 16 10 3 6 -1 10 -9 10 -9 0
-16 -4 -16 -10z"/>
<path d="M5330 5044 c0 -8 5 -12 10 -9 6 3 10 10 10 16 0 5 -4 9 -10 9 -5 0
-10 -7 -10 -16z"/>
<path d="M5590 5034 c-9 -10 -9 -14 -1 -14 17 0 13 -28 -5 -38 -9 -5 -17 -23
-18 -41 -2 -37 -27 -61 -63 -61 -16 0 -24 -7 -29 -25 -5 -20 -11 -24 -28 -19
-11 3 -29 14 -38 25 -14 16 -18 17 -25 5 -4 -8 -19 -16 -33 -18 -20 -2 -24 -8
-22 -28 3 -20 1 -23 -9 -12 -7 6 -20 12 -28 12 -12 0 -11 -3 2 -18 22 -24 22
-24 -7 -55 -13 -14 -26 -31 -28 -37 -2 -6 -18 -3 -43 10 -47 24 -63 25 -84 6
-9 -8 -29 -26 -44 -40 -15 -14 -32 -26 -37 -26 -6 0 -10 -6 -10 -13 0 -13 -24
-28 -62 -41 -10 -3 -18 -1 -18 4 0 12 -20 13 -39 1 -12 -8 -12 -13 -3 -24 10
-12 10 -16 -2 -20 -9 -4 -12 -14 -9 -26 4 -14 -5 -32 -26 -56 -35 -41 -41 -61
-12 -46 10 6 21 7 25 4 3 -3 14 1 23 9 10 8 30 18 46 22 21 5 27 3 27 -10 0
-10 -5 -14 -15 -11 -8 4 -17 2 -20 -2 -9 -15 29 -18 63 -4 37 15 43 28 8 19
-35 -9 -44 22 -10 34 14 6 29 10 33 10 5 0 11 9 14 20 3 11 12 20 21 20 9 0
16 5 16 10 0 6 -7 10 -15 10 -8 0 -15 9 -15 20 0 26 11 25 32 -4 15 -21 16
-26 3 -36 -22 -18 -19 -26 19 -37 38 -12 46 -4 46 40 -1 20 -2 20 -16 -5 -18
-35 -33 -36 -26 -3 6 36 57 37 104 3 16 -11 28 -14 28 -8 0 7 8 9 20 5 16 -5
20 -2 20 14 0 22 4 23 80 25 38 1 45 4 48 23 3 17 -1 20 -17 16 -12 -3 -21 -1
-21 5 0 13 26 23 44 16 24 -9 125 25 136 46 6 11 16 17 24 14 7 -3 16 2 19 10
4 9 14 16 24 16 15 0 16 2 3 10 -8 5 -23 7 -32 4 -13 -4 -16 -1 -12 9 3 9 -3
17 -18 20 -39 11 -4 31 50 29 39 -1 54 4 75 24 15 13 38 29 53 34 14 6 24 15
22 21 -5 16 -61 21 -69 7 -6 -9 -12 -8 -23 1 -13 11 -16 11 -16 -3 0 -21 -26
-21 -34 0 -4 11 -14 15 -31 12 -30 -6 -34 12 -5 19 11 3 20 9 20 13 0 5 9 12
20 15 11 4 18 10 15 15 -3 5 -16 5 -30 0 -14 -5 -25 -6 -25 -1 0 5 7 12 16 15
13 5 14 9 4 21 -9 11 -10 18 -1 29 9 10 8 15 -3 19 -8 3 -20 -1 -26 -9z m-75
-304 c-3 -5 -12 -10 -18 -10 -7 0 -6 4 3 10 19 12 23 12 15 0z m-379 -55 c-3
-9 0 -15 9 -15 8 0 15 7 15 15 0 9 6 12 15 9 8 -4 15 -12 15 -20 0 -8 9 -14
20 -14 11 0 20 7 20 15 0 8 5 15 10 15 6 0 10 -7 10 -15 0 -19 -41 -36 -56
-24 -6 5 -34 6 -62 2 -36 -4 -52 -2 -52 6 0 6 6 11 14 11 8 0 16 7 20 15 3 8
10 15 17 15 6 0 9 -7 5 -15z m174 -45 c0 -5 -5 -10 -11 -10 -5 0 -7 5 -4 10 3
6 8 10 11 10 2 0 4 -4 4 -10z m-340 -50 c0 -5 -4 -10 -10 -10 -5 0 -10 5 -10
10 0 6 5 10 10 10 6 0 10 -4 10 -10z"/>
<path d="M5210 5025 c0 -18 -17 -20 -23 -2 -4 9 -7 9 -17 0 -20 -18 14 -29 46
-15 27 13 32 32 9 32 -8 0 -15 -7 -15 -15z"/>
<path d="M5481 5026 c-16 -19 -11 -29 8 -17 7 5 12 14 9 21 -3 9 -8 7 -17 -4z"/>
<path d="M5867 5033 c-14 -4 -16 -8 -6 -19 16 -19 26 -18 32 6 3 11 2 19 -1
19 -4 -1 -15 -3 -25 -6z"/>
<path d="M6020 5021 c0 -11 -4 -23 -10 -26 -5 -3 -10 -14 -10 -23 0 -12 8 -8
33 16 27 27 30 34 17 42 -22 14 -30 12 -30 -9z"/>
<path d="M6230 5029 c0 -5 5 -7 10 -4 6 3 10 8 10 11 0 2 -4 4 -10 4 -5 0 -10
-5 -10 -11z"/>
<path d="M5083 5023 c-20 -8 -15 -23 7 -23 11 0 20 7 20 15 0 15 -6 17 -27 8z"/>
<path d="M3001 5004 c0 -11 3 -14 6 -6 3 7 2 16 -1 19 -3 4 -6 -2 -5 -13z"/>
<path d="M3680 4990 c0 -5 5 -10 11 -10 5 0 7 5 4 10 -3 6 -8 10 -11 10 -2 0
-4 -4 -4 -10z"/>
<path d="M3776 4981 c-4 -7 -5 -15 -2 -18 9 -9 19 4 14 18 -4 11 -6 11 -12 0z"/>
<path d="M5440 4978 c0 -7 11 -14 25 -14 21 -2 24 1 14 12 -14 17 -39 18 -39
2z"/>
<path d="M5776 4974 c-5 -14 -4 -15 9 -4 17 14 19 20 6 20 -5 0 -12 -7 -15
-16z"/>
<path d="M5930 4980 c0 -5 7 -10 15 -10 8 0 15 5 15 10 0 6 -7 10 -15 10 -8 0
-15 -4 -15 -10z"/>
<path d="M6045 4980 c-3 -5 -2 -10 4 -10 5 0 13 5 16 10 3 6 2 10 -4 10 -5 0
-13 -4 -16 -10z"/>
<path d="M6117 4966 c-4 -10 1 -12 14 -9 23 6 24 9 5 16 -8 3 -17 0 -19 -7z"/>
<path d="M6515 4970 c-3 -5 -1 -10 4 -10 6 0 11 5 11 10 0 6 -2 10 -4 10 -3 0
-8 -4 -11 -10z"/>
<path d="M2902 4940 c0 -14 2 -19 5 -12 2 6 2 18 0 25 -3 6 -5 1 -5 -13z"/>
<path d="M3190 4954 c-9 -3 -20 -15 -25 -27 -6 -12 -18 -22 -27 -22 -10 0 -18
-4 -17 -10 1 -33 99 18 99 52 0 13 -3 14 -30 7z"/>
<path d="M3722 4930 c0 -17 4 -28 9 -24 5 3 7 10 4 15 -4 5 1 9 11 9 13 0 14
3 4 15 -19 23 -27 18 -28 -15z"/>
<path d="M3247 4944 c-8 -8 1 -24 14 -24 5 0 9 7 9 15 0 15 -12 20 -23 9z"/>
<path d="M5060 4940 c0 -5 5 -10 11 -10 5 0 7 5 4 10 -3 6 -8 10 -11 10 -2 0
-4 -4 -4 -10z"/>
<path d="M5885 4940 c-3 -5 3 -10 15 -10 12 0 18 5 15 10 -3 6 -10 10 -15 10
-5 0 -12 -4 -15 -10z"/>
<path d="M3075 4920 c3 -5 11 -10 16 -10 6 0 7 5 4 10 -3 6 -11 10 -16 10 -6
0 -7 -4 -4 -10z"/>
<path d="M3790 4922 c0 -5 12 -12 28 -15 15 -3 35 -9 45 -12 12 -5 17 -2 17 9
0 10 -9 16 -22 16 -13 0 -33 3 -45 6 -13 4 -23 2 -23 -4z"/>
<path d="M6310 4920 c0 -5 5 -10 10 -10 6 0 10 5 10 10 0 6 -4 10 -10 10 -5 0
-10 -4 -10 -10z"/>
<path d="M3980 4910 c0 -7 -8 -9 -20 -5 -23 7 -60 -2 -60 -15 0 -6 11 -12 25
-16 27 -7 84 29 65 41 -5 3 -10 1 -10 -5z"/>
<path d="M3410 4861 c0 -16 -7 -36 -15 -45 -8 -8 -15 -17 -15 -21 0 -15 -60
-65 -79 -65 -11 0 -22 -4 -26 -10 -3 -5 -12 -7 -20 -3 -8 3 -15 1 -15 -5 0 -5
17 -9 38 -9 47 0 86 -19 78 -39 -7 -19 1 -18 43 8 53 33 139 60 164 51 12 -4
29 -7 37 -7 10 -1 15 -12 14 -36 0 -19 5 -38 10 -42 8 -5 7 -14 -1 -27 -12
-19 -11 -19 20 -6 18 7 36 12 42 12 15 -3 18 35 3 44 -9 6 -7 9 9 9 12 0 24
-6 26 -12 4 -10 6 -10 6 0 2 20 21 13 21 -8 0 -11 -7 -20 -15 -20 -8 0 -15 -4
-15 -10 0 -5 8 -10 18 -10 20 0 53 34 49 51 -1 6 6 13 16 14 9 2 17 -3 17 -11
0 -8 9 -14 20 -14 21 0 26 10 11 25 -5 6 -11 21 -13 35 -2 19 -10 26 -33 30
-16 3 -30 11 -29 18 1 6 2 23 3 37 1 27 28 34 49 13 13 -13 27 -5 17 11 -3 6
-19 11 -34 11 -15 0 -31 4 -37 10 -13 13 -104 22 -104 10 0 -5 20 -12 45 -16
46 -6 58 -28 18 -30 -12 -1 -28 -4 -37 -7 -8 -3 -18 -2 -21 3 -7 11 -62 5 -79
-9 -6 -5 -21 -9 -31 -9 -34 2 -100 -13 -107 -25 -4 -6 -10 -9 -13 -6 -6 7 -13
64 -14 112 -1 37 -21 35 -21 -2z m-10 -116 c0 -13 -4 -14 -22 -4 -34 17 -34
19 -5 19 18 0 27 -5 27 -15z m330 -31 c0 -12 -7 -15 -25 -12 -14 3 -25 1 -25
-3 0 -5 -9 -4 -20 3 -19 12 -18 13 17 19 21 3 41 7 46 8 4 0 7 -6 7 -15z m38
-12 c6 -18 -15 -14 -22 4 -4 10 -1 14 6 12 6 -2 14 -10 16 -16z m-78 -62 c0
-5 -4 -10 -10 -10 -5 0 -10 5 -10 10 0 6 5 10 10 10 6 0 10 -4 10 -10z"/>
<path d="M5050 4869 c0 -5 5 -7 10 -4 6 3 10 8 10 11 0 2 -4 4 -10 4 -5 0 -10
-5 -10 -11z"/>
<path d="M4803 4856 c-24 -11 -31 -26 -12 -26 17 0 49 20 49 30 0 12 -8 11
-37 -4z"/>
<path d="M5177 4856 c-4 -10 0 -12 14 -9 22 6 26 23 5 23 -8 0 -16 -6 -19 -14z"/>
<path d="M4683 4835 c13 -27 22 -31 32 -15 8 13 -13 40 -30 40 -10 0 -11 -5
-2 -25z"/>
<path d="M4346 4805 c7 -18 12 -18 44 0 l25 14 -37 1 c-29 0 -36 -3 -32 -15z"/>
<path d="M4490 4795 c-7 -8 -9 -15 -6 -15 4 0 14 7 22 15 9 8 11 15 6 15 -5 0
-15 -7 -22 -15z"/>
<path d="M4920 4800 c0 -5 5 -10 11 -10 5 0 7 5 4 10 -3 6 -8 10 -11 10 -2 0
-4 -4 -4 -10z"/>
<path d="M5068 4773 c7 -3 16 -2 19 1 4 3 -2 6 -13 5 -11 0 -14 -3 -6 -6z"/>
<path d="M3957 4749 c-10 -6 -21 -8 -24 -6 -4 5 -53 -40 -53 -48 0 -6 51 9 56
16 3 5 12 9 20 9 11 0 14 -12 12 -51 -2 -35 1 -53 10 -56 6 -3 12 2 12 10 0
18 28 42 38 32 4 -4 2 -10 -4 -12 -7 -2 -10 -12 -7 -23 3 -10 -4 -27 -16 -39
-12 -12 -21 -23 -21 -24 0 -12 68 -3 82 10 10 9 21 13 26 9 7 -7 -7 -21 -59
-59 l-24 -17 33 6 c21 4 32 2 32 -6 0 -9 11 -10 35 -6 22 4 35 3 35 -4 0 -5 5
-10 11 -10 6 0 8 9 4 21 -5 16 0 27 20 43 29 24 26 56 -6 56 -10 0 -19 7 -19
15 0 22 38 18 50 -5 11 -20 50 -28 50 -10 0 6 -3 9 -7 8 -5 -2 -8 2 -8 7 0 6
6 9 12 9 7 -1 10 2 7 7 -3 5 -13 8 -22 7 -12 -2 -16 3 -14 20 2 12 -2 22 -8
22 -7 0 -10 -7 -7 -15 4 -8 2 -17 -2 -20 -14 -8 -32 21 -25 40 6 14 1 16 -37
15 -24 -2 -56 2 -71 8 -15 6 -35 9 -43 6 -10 -4 -18 3 -25 20 -10 29 -16 31
-43 15z m173 -159 c0 -5 -5 -10 -11 -10 -5 0 -7 5 -4 10 3 6 8 10 11 10 2 0 4
-4 4 -10z"/>
<path d="M4410 4750 c0 -5 5 -10 11 -10 5 0 7 5 4 10 -3 6 -8 10 -11 10 -2 0
-4 -4 -4 -10z"/>
<path d="M3560 4664 c0 -8 5 -12 10 -9 6 3 10 10 10 16 0 5 -4 9 -10 9 -5 0
-10 -7 -10 -16z"/>
<path d="M4874 4665 c-18 -14 -17 -14 13 -15 25 0 31 4 27 15 -8 19 -15 19
-40 0z"/>
<path d="M4821 4641 c-7 -12 -16 -19 -22 -16 -9 6 -39 -17 -39 -29 0 -14 41
-5 47 10 3 9 14 19 24 22 12 5 15 12 10 21 -7 11 -11 9 -20 -8z"/>
<path d="M3525 4640 c3 -5 10 -10 16 -10 5 0 9 5 9 10 0 6 -7 10 -16 10 -8 0
-12 -4 -9 -10z"/>
<path d="M3400 4630 c-13 -8 -12 -10 3 -10 9 0 17 5 17 10 0 12 -1 12 -20 0z"/>
<path d="M3797 4626 c-12 -31 37 -37 53 -6 10 18 8 20 -19 20 -16 0 -31 -6
-34 -14z"/>
<path d="M4270 4611 c0 -10 30 -24 37 -17 3 2 -5 9 -16 16 -12 6 -21 7 -21 1z"/>
<path d="M3570 4590 c0 -5 5 -10 10 -10 6 0 10 5 10 10 0 6 -4 10 -10 10 -5 0
-10 -4 -10 -10z"/>
<path d="M3775 4590 c3 -5 10 -10 16 -10 5 0 9 5 9 10 0 6 -7 10 -16 10 -8 0
-12 -4 -9 -10z"/>
<path d="M3880 4588 c0 -23 12 -58 19 -58 4 0 7 16 8 35 1 24 -3 35 -13 35 -8
0 -14 -6 -14 -12z"/>
<path d="M4865 4580 c-10 -11 -21 -17 -26 -14 -5 2 -17 -4 -28 -15 -11 -11
-16 -23 -11 -26 15 -9 60 6 60 21 0 8 4 14 9 14 5 0 11 9 14 20 6 25 5 25 -18
0z"/>
<path d="M3828 4563 c-2 -19 3 -35 16 -47 19 -19 19 -19 12 0 -4 10 -9 29 -11
42 -4 34 -12 37 -17 5z"/>
<path d="M4530 4574 c0 -8 5 -12 10 -9 6 4 8 11 5 16 -9 14 -15 11 -15 -7z"/>
<path d="M7838 4583 c7 -3 16 -2 19 1 4 3 -2 6 -13 5 -11 0 -14 -3 -6 -6z"/>
<path d="M4435 4560 c-3 -5 -1 -10 4 -10 6 0 11 5 11 10 0 6 -2 10 -4 10 -3 0
-8 -4 -11 -10z"/>
<path d="M3520 4550 c0 -5 7 -7 15 -4 8 4 15 8 15 10 0 2 -7 4 -15 4 -8 0 -15
-4 -15 -10z"/>
<path d="M4704 4502 c2 -4 -18 -5 -44 -4 -41 3 -50 1 -60 -17 -9 -17 -15 -19
-30 -11 -28 15 -76 12 -94 -6 -20 -19 -20 -28 -2 -63 16 -31 46 -59 46 -43 0
11 36 23 44 15 8 -8 78 -12 99 -7 9 3 17 14 17 24 0 9 9 20 20 23 11 3 20 10
20 17 0 6 -4 9 -9 6 -5 -4 -7 3 -4 13 4 17 8 18 29 9 21 -10 28 -8 45 11 12
12 18 25 15 28 -9 9 -97 13 -92 5z"/>
<path d="M3987 4493 c-4 -3 -7 -11 -7 -17 0 -6 5 -5 12 2 6 6 9 14 7 17 -3 3
-9 2 -12 -2z"/>
<path d="M4252 4488 c-19 -19 -14 -29 8 -16 20 13 27 28 12 28 -4 0 -13 -5
-20 -12z"/>
<path d="M4314 4466 c-11 -23 -9 -24 44 -35 30 -6 57 -9 59 -7 2 2 1 15 -2 29
-5 18 -15 27 -37 31 -47 9 -52 8 -64 -18z"/>
<path d="M5080 4473 c0 -4 58 -33 65 -33 3 0 0 8 -7 19 -6 10 -22 18 -35 17
-12 0 -23 -2 -23 -3z"/>
<path d="M4190 4466 c0 -2 7 -7 16 -10 8 -3 12 -2 9 4 -6 10 -25 14 -25 6z"/>
<path d="M5140 4129 c0 -5 5 -7 10 -4 6 3 10 8 10 11 0 2 -4 4 -10 4 -5 0 -10
-5 -10 -11z"/>
<path d="M9160 4048 c0 -9 5 -20 10 -23 13 -8 13 5 0 25 -8 13 -10 13 -10 -2z"/>
<path d="M9118 3972 c-3 -11 0 -19 7 -19 7 0 10 8 7 19 -2 10 -6 18 -7 18 -1
0 -5 -8 -7 -18z"/>
<path d="M9034 3915 c-14 -13 -32 -22 -38 -18 -6 4 -5 -1 3 -10 11 -14 11 -22
-3 -51 -23 -48 -21 -51 27 -52 39 -1 45 2 55 28 5 15 17 28 26 28 9 0 16 5 16
11 0 5 -6 7 -12 3 -9 -5 -8 -2 1 9 22 27 5 32 -27 8 -36 -25 -48 -26 -56 -5
-8 21 1 34 23 34 10 0 26 9 36 20 18 19 17 20 -3 20 -12 0 -33 -11 -48 -25z
m18 -97 c-7 -7 -12 -8 -12 -2 0 14 12 26 19 19 2 -3 -1 -11 -7 -17z"/>
<path d="M8868 3893 c-31 -4 -38 -8 -38 -26 0 -26 33 -80 43 -70 4 3 7 15 7
27 0 11 12 33 27 48 16 17 21 27 12 26 -8 -1 -31 -3 -51 -5z"/>
<path d="M9105 3787 c-11 -10 -27 -24 -36 -32 -18 -17 -36 -19 -41 -6 -6 16
-48 -8 -48 -28 0 -11 -5 -21 -12 -23 -7 -3 -8 -10 -4 -17 5 -8 11 -9 15 -3 9
13 100 52 105 44 11 -20 17 -72 7 -72 -11 0 -15 13 -12 39 4 25 -24 5 -42 -32
-17 -34 -47 -51 -47 -27 0 7 -7 7 -21 0 -11 -7 -18 -14 -15 -17 8 -8 -14 -33
-29 -33 -21 0 -12 79 11 103 29 32 33 50 13 69 -16 15 -17 15 -22 -4 -3 -11
-10 -17 -15 -14 -11 7 -22 -16 -22 -44 0 -10 -14 -32 -32 -49 -31 -30 -32 -30
-45 -11 -8 11 -11 25 -8 30 3 6 2 10 -3 10 -6 0 -12 -7 -16 -15 -5 -14 -10
-14 -39 -1 -30 12 -38 12 -72 -5 -21 -11 -45 -19 -52 -19 -7 0 -23 -6 -34 -12
-18 -11 -23 -10 -26 0 -3 8 -9 10 -16 4 -7 -5 -25 -12 -40 -16 -15 -4 -25 -11
-22 -16 3 -5 0 -7 -7 -5 -8 3 -25 -6 -38 -20 -18 -20 -21 -28 -12 -37 10 -10
7 -15 -10 -25 -13 -7 -17 -12 -10 -13 6 0 12 -5 12 -11 0 -6 7 -18 16 -27 15
-15 17 -15 29 1 12 17 13 17 19 1 5 -13 9 -15 18 -6 21 21 45 13 53 -15 5 -20
2 -31 -12 -41 -15 -11 -18 -11 -21 1 -4 19 -32 26 -61 15 -17 -6 -22 -14 -18
-29 5 -17 2 -20 -14 -16 -13 3 -24 -2 -32 -14 -6 -10 -20 -19 -31 -19 -18 0
-18 1 -3 18 8 9 20 29 26 45 9 24 8 27 -9 27 -10 0 -22 -4 -25 -10 -3 -5 -19
-10 -36 -10 -16 0 -29 -4 -29 -10 0 -10 15 -14 34 -11 8 2 0 -65 -10 -81 -8
-12 -59 -9 -72 4 -15 15 -18 11 -25 -29 -5 -24 -1 -37 19 -58 14 -15 22 -30
19 -34 -4 -3 -12 2 -20 12 -18 24 -42 12 -51 -26 -3 -18 -15 -44 -26 -59 -22
-32 -16 -53 10 -38 9 5 50 22 90 37 41 15 85 38 98 50 14 13 30 23 36 23 6 0
8 13 4 35 -7 34 -6 35 23 35 16 0 31 6 33 12 3 8 9 4 17 -10 10 -18 10 -27 0
-38 -6 -8 -8 -14 -4 -14 16 0 175 82 175 90 0 17 -18 20 -30 5 -17 -20 -30
-19 -30 4 0 10 16 31 35 45 19 15 35 33 35 41 0 21 -53 3 -65 -22 -6 -12 -16
-28 -23 -36 -10 -12 -10 -16 -1 -19 8 -3 10 -11 6 -22 -9 -23 -27 -11 -27 19
0 13 -4 27 -10 30 -6 4 -10 -7 -10 -24 0 -24 -4 -31 -20 -31 -13 0 -20 7 -20
20 0 11 5 20 10 20 16 0 12 22 -7 36 -17 12 -17 13 1 20 10 4 21 2 25 -4 4 -6
16 -9 28 -6 18 5 24 15 38 67 2 4 4 10 5 15 5 11 8 26 9 41 1 10 4 11 14 3 10
-8 13 -6 14 10 1 12 9 26 18 30 8 5 12 14 9 20 -5 7 5 9 30 4 23 -4 36 -3 36
4 0 18 20 11 21 -7 0 -14 3 -13 11 5 6 12 14 22 18 22 17 0 19 -33 5 -60 -11
-22 -12 -29 -2 -33 6 -2 8 -8 4 -13 -5 -5 -13 -1 -18 9 -13 23 -39 22 -39 -2
0 -11 9 -23 22 -27 17 -5 27 0 43 20 22 28 35 26 35 -7 0 -10 -9 -21 -19 -24
-17 -4 -18 -8 -8 -24 10 -16 9 -21 -3 -29 -13 -8 -13 -10 1 -10 9 0 19 7 23
15 8 21 24 19 28 -3 3 -17 6 -17 56 6 61 28 59 52 -2 27 -36 -15 -62 -12 -50
6 3 5 9 7 14 4 5 -3 11 -1 15 5 3 6 -1 13 -9 16 -9 3 -16 14 -16 23 0 9 -12
24 -27 33 -21 13 -23 18 -10 18 9 0 17 7 17 15 0 8 5 15 10 15 6 0 10 -6 10
-12 0 -7 14 -14 30 -15 17 -1 28 2 25 7 -3 5 13 8 35 7 41 -1 49 -12 28 -37
-11 -12 -10 -12 5 -1 15 12 17 11 17 -8 0 -17 -4 -20 -30 -14 -24 4 -30 2 -30
-11 0 -13 5 -16 20 -11 16 5 20 2 20 -14 0 -23 -9 -25 101 23 38 16 94 89 83
107 -4 6 -18 -2 -36 -20 -16 -16 -42 -33 -59 -36 -16 -4 -29 -11 -29 -16 0 -5
-7 -9 -15 -9 -17 0 -20 26 -4 36 6 3 8 17 5 29 -4 14 -1 27 6 31 16 10 61 10
79 -1 11 -6 12 -5 2 6 -20 20 -15 31 9 24 17 -6 20 -4 15 9 -4 10 1 21 13 28
14 9 16 16 8 25 -7 9 -6 14 5 19 9 3 13 12 10 20 -3 8 0 14 6 14 6 0 11 5 11
10 0 6 -6 10 -14 10 -8 0 -18 10 -23 23 -8 22 -9 22 -28 4z m23 -54 c-4 -22
-22 -20 -26 1 -2 10 3 16 13 16 10 0 15 -7 13 -17z m-333 -113 c3 -5 -1 -10
-9 -10 -9 0 -16 5 -16 10 0 6 4 10 9 10 6 0 13 -4 16 -10z m-233 -42 c-7 -7
-12 -20 -12 -30 0 -11 -5 -15 -15 -12 -8 4 -15 1 -15 -6 0 -6 -4 -8 -10 -5
-18 11 -10 34 18 49 33 18 50 20 34 4z m-79 -55 c-3 -7 -12 -13 -20 -13 -8 0
-12 3 -10 8 2 4 7 16 11 27 6 15 9 17 16 6 4 -8 6 -20 3 -28z m81 -19 c4 -10
1 -14 -6 -12 -15 5 -23 28 -10 28 5 0 13 -7 16 -16z m-154 -193 c0 -5 -10 -11
-22 -14 -17 -5 -19 -9 -9 -21 8 -10 9 -16 1 -21 -16 -10 -30 4 -23 23 10 29
53 56 53 33z m39 -4 c-2 -1 -13 -9 -24 -17 -19 -14 -19 -14 -6 3 7 9 18 17 24
17 6 0 8 -1 6 -3z m-119 -57 c0 -5 -4 -10 -10 -10 -5 0 -10 5 -10 10 0 6 5 10
10 10 6 0 10 -4 10 -10z m-41 -8 c13 10 14 10 4 -2 -17 -18 -16 -30 1 -30 7 0
19 -7 26 -15 10 -12 9 -16 -5 -22 -12 -4 -22 0 -31 13 -7 10 -18 24 -24 31
-15 18 -14 41 2 25 9 -9 15 -9 27 0z m-49 -97 c0 -9 -6 -12 -15 -9 -8 4 -15
10 -15 15 0 5 7 9 15 9 8 0 15 -7 15 -15z"/>
<path d="M8925 3790 c3 -5 8 -10 11 -10 2 0 4 5 4 10 0 6 -5 10 -11 10 -5 0
-7 -4 -4 -10z"/>
<path d="M8655 3702 c-23 -5 -36 -22 -28 -35 3 -4 12 -2 21 6 10 8 24 16 32
19 20 6 -1 15 -25 10z"/>
<path d="M8696 3525 c-16 -12 -17 -15 -4 -15 9 0 18 7 22 15 7 18 6 18 -18 0z"/>
<path d="M8300 3512 c0 -4 -20 -16 -45 -27 -25 -10 -59 -28 -76 -41 l-30 -22
23 -8 c13 -4 32 -8 42 -9 10 -1 24 -9 31 -18 16 -22 25 -21 25 1 0 10 18 35
40 57 39 38 40 38 55 19 13 -17 13 -16 2 14 -7 19 -17 30 -24 28 -7 -3 -13 -1
-13 4 0 6 -7 10 -15 10 -8 0 -15 -4 -15 -8z"/>
<path d="M8648 3493 c-27 -32 -29 -42 -12 -62 14 -16 21 -17 40 -9 25 12 34
40 12 36 -7 -2 -13 7 -13 19 -1 31 -9 36 -27 16z"/>
<path d="M8395 3460 c-3 -5 -1 -10 4 -10 6 0 11 5 11 10 0 6 -2 10 -4 10 -3 0
-8 -4 -11 -10z"/>
<path d="M7982 3419 c-19 -31 -9 -33 18 -4 16 17 19 25 9 25 -8 0 -20 -9 -27
-21z"/>
<path d="M8110 3419 c0 -23 -51 -69 -77 -69 -6 0 -26 -13 -44 -30 -36 -31 -49
-37 -49 -20 0 6 16 20 35 32 42 24 41 34 -1 17 -16 -7 -38 -13 -49 -14 -46 -6
-65 -19 -85 -61 -11 -25 -24 -42 -29 -40 -12 8 -80 -17 -81 -29 -1 -5 -11 -13
-22 -18 -18 -6 -19 -5 -8 8 11 13 8 15 -18 15 -32 0 -48 -20 -29 -39 6 -6 7
-11 3 -11 -4 0 -17 10 -27 23 -20 22 -20 22 -10 0 10 -20 8 -22 -29 -28 -22
-4 -40 -9 -40 -12 0 -15 23 -43 35 -43 8 0 15 -7 15 -15 0 -20 10 -19 25 1 11
15 14 15 38 -1 25 -16 27 -16 53 4 34 27 54 27 47 1 -7 -27 10 -25 22 3 7 16
18 22 40 22 22 0 33 6 40 23 5 12 17 22 25 23 8 0 26 2 39 5 23 4 51 -10 51
-26 0 -8 -39 -23 -54 -21 -4 1 -14 -3 -22 -10 -10 -8 -11 -15 -1 -30 10 -16 8
-22 -10 -40 l-22 -22 -6 37 c-6 31 -11 36 -34 36 l-26 -1 22 -18 c12 -10 25
-30 29 -45 3 -14 10 -26 15 -26 12 0 12 -27 0 -34 -14 -9 -54 32 -47 49 7 20
-36 21 -67 1 -21 -14 -47 -20 -75 -17 -9 1 -11 8 -7 21 6 17 2 20 -29 20 -39
0 -55 -14 -28 -25 16 -6 16 -7 -2 -20 -10 -8 -23 -12 -27 -9 -5 3 -9 0 -9 -5
0 -6 -6 -11 -14 -11 -8 0 -18 -9 -21 -20 -4 -11 -11 -18 -16 -15 -13 9 -11 43
3 47 6 2 9 9 5 15 -6 9 -38 10 -79 4 -4 -1 -5 -8 -2 -16 4 -10 0 -15 -12 -15
-11 0 -32 -7 -48 -15 -26 -14 -30 -14 -42 2 -8 10 -16 29 -20 43 -3 14 -9 35
-14 47 -8 18 -6 21 8 16 28 -10 42 -24 42 -44 0 -18 20 -26 33 -12 4 3 29 14
57 24 44 15 51 16 58 3 7 -13 12 -12 33 5 13 10 21 23 17 27 -4 4 -15 1 -23
-6 -12 -10 -19 -10 -27 -2 -7 7 -26 13 -42 13 -17 1 -23 3 -13 6 9 2 17 9 17
15 0 6 8 8 18 6 22 -6 28 28 6 36 -8 3 -14 -1 -14 -10 0 -8 -11 -20 -25 -26
-16 -7 -24 -17 -20 -26 3 -8 -3 -21 -12 -28 -25 -18 -33 -17 -33 4 0 22 -45
68 -54 54 -3 -5 -20 -12 -37 -16 -25 -5 -35 -1 -49 17 l-18 22 -35 -40 c-19
-22 -31 -41 -26 -43 17 -7 9 -30 -15 -45 -13 -9 -41 -17 -63 -19 -22 -2 -53
-14 -70 -26 -17 -12 -35 -22 -40 -22 -4 0 -14 -9 -21 -21 -8 -12 -19 -18 -28
-15 -8 3 -14 1 -14 -4 0 -6 5 -10 10 -10 6 0 10 -7 10 -16 0 -18 -34 -15 -36
4 -1 6 -2 20 -3 30 -2 16 -2 16 -15 0 -7 -10 -17 -18 -21 -18 -4 0 -13 -8 -20
-17 -10 -14 -10 -21 1 -39 13 -19 12 -23 -10 -37 -16 -11 -36 -14 -60 -10 -25
4 -44 0 -61 -11 -15 -10 -41 -18 -58 -19 -40 -3 -97 -44 -97 -70 0 -16 -3 -17
-15 -7 -10 9 -15 9 -15 1 0 -12 0 -12 47 -16 25 -2 37 4 54 26 24 31 39 37 39
15 0 -15 -53 -59 -94 -77 -22 -10 -29 -9 -46 6 -11 10 -20 24 -20 32 0 7 -5
13 -11 13 -5 0 -7 -4 -4 -10 10 -17 -7 -11 -22 8 -14 16 -14 16 -9 -1 5 -15
-24 -57 -39 -57 -3 0 -28 -16 -55 -35 -27 -19 -55 -35 -61 -35 -6 0 -46 -17
-89 -39 -42 -21 -93 -41 -113 -45 -20 -4 -37 -12 -37 -19 0 -7 -14 -20 -30
-29 -28 -16 -30 -16 -30 0 0 10 -16 26 -35 36 -19 11 -35 26 -35 34 0 12 -3
12 -15 2 -14 -12 -14 -15 3 -29 10 -9 27 -21 38 -27 18 -10 33 -54 19 -54 -4
0 -18 9 -33 20 -18 14 -28 17 -32 9 -5 -6 -17 -8 -29 -4 -13 4 -31 1 -45 -8
-13 -9 -34 -13 -51 -10 -20 4 -32 1 -41 -12 -13 -18 -34 -13 -34 9 0 8 6 19
14 25 8 6 16 21 19 31 5 18 0 20 -39 20 -42 0 -44 -1 -44 -29 0 -17 -4 -33
-10 -36 -5 -3 -10 -14 -10 -23 1 -15 2 -15 15 2 18 23 42 15 47 -16 4 -28 34
-29 92 -4 l39 18 -27 -32 c-21 -25 -24 -35 -15 -46 6 -8 15 -11 20 -8 5 3 9
-2 9 -11 0 -13 -6 -16 -25 -11 -14 4 -25 2 -25 -4 0 -5 5 -10 11 -10 5 0 8 -4
5 -9 -13 -21 22 -17 43 5 13 14 57 40 97 60 41 19 74 40 74 45 0 5 12 15 28
22 15 6 35 22 45 34 20 25 47 20 47 -9 0 -13 6 -18 18 -16 9 2 16 11 16 21 -1
12 6 17 22 17 21 0 23 -3 17 -30 -5 -26 -3 -30 13 -27 11 1 30 13 43 26 17 17
26 20 34 12 8 -8 3 -19 -17 -40 -18 -19 -23 -30 -15 -33 8 -3 10 -11 5 -24 -6
-12 -10 -15 -13 -6 -3 6 -14 12 -26 12 -11 0 -31 10 -44 22 -19 18 -23 19 -17
5 3 -9 1 -24 -6 -32 -15 -18 -5 -23 54 -27 l38 -3 -18 -23 -19 -23 -40 21
c-21 11 -49 20 -60 20 -12 0 -26 5 -32 11 -7 7 -14 6 -24 -4 -8 -7 -37 -17
-64 -20 -32 -4 -56 -14 -67 -27 -9 -11 -25 -20 -37 -20 -11 0 -23 -5 -26 -11
-4 -6 -13 -8 -21 -5 -8 3 -14 -1 -14 -8 0 -16 -27 -30 -52 -27 -12 1 -20 -7
-24 -26 -10 -41 -24 -55 -51 -48 -13 3 -23 1 -23 -5 0 -5 -7 -10 -15 -10 -7 0
-18 -6 -22 -13 -12 -20 -45 -30 -53 -16 -6 8 -13 8 -28 0 -15 -8 -23 -7 -33 5
-11 13 -10 15 2 14 33 -5 59 1 59 13 0 8 7 14 15 14 8 0 12 -4 9 -9 -3 -4 -1
-8 5 -8 17 0 23 20 11 34 -9 11 -3 15 29 21 41 7 67 27 57 43 -8 14 45 25 57
13 19 -19 29 -12 22 17 -10 41 -19 45 -49 21 -17 -13 -33 -18 -44 -14 -14 6
-15 8 -2 13 26 9 41 42 18 42 -6 0 -20 8 -30 17 -16 14 -18 14 -13 1 5 -12 0
-15 -22 -11 -24 4 -26 2 -13 -9 27 -24 18 -61 -23 -87 -29 -19 -34 -27 -25
-38 17 -21 6 -23 -31 -6 -32 16 -34 16 -47 -2 -8 -10 -14 -30 -15 -44 -2 -65
-24 -125 -44 -117 -6 2 -19 -2 -30 -10 -20 -15 -65 -19 -65 -6 0 5 11 19 25
32 32 31 32 53 -2 67 -16 7 -36 18 -46 25 -15 11 -20 10 -31 -4 -10 -13 -16
-14 -24 -6 -6 6 -15 8 -19 4 -8 -7 17 -30 41 -39 8 -3 7 -8 -1 -18 -7 -7 -13
-19 -13 -27 0 -16 -24 -42 -40 -42 -7 0 0 14 14 31 25 29 36 66 16 54 -5 -3
-17 7 -27 22 -33 52 -53 56 -53 12 0 -23 4 -30 18 -27 9 1 23 -1 30 -5 17 -11
15 -44 -2 -50 -9 -4 -16 -23 -18 -49 -3 -39 -6 -43 -32 -48 -34 -6 -43 -22
-21 -40 21 -17 19 -40 -4 -40 -13 0 -18 6 -16 18 1 9 0 11 -2 5 -6 -16 -16
-16 -30 -2 -9 9 -11 5 -9 -15 3 -34 12 -42 29 -28 8 7 17 9 20 5 12 -11 8 -23
-7 -23 -28 0 -58 -35 -54 -63 l3 -27 38 25 c20 14 76 41 124 60 49 18 88 39
89 47 2 29 5 31 17 15 11 -16 16 -16 51 -4 23 8 35 17 29 20 -7 4 -14 3 -18
-3 -8 -13 -25 -13 -25 1 0 6 9 13 20 16 24 6 26 19 5 27 -18 7 -20 26 -2 26
15 0 42 -40 38 -58 -2 -10 4 -12 21 -7 48 15 54 23 25 30 -15 4 -27 12 -27 17
0 11 25 38 35 38 15 0 34 30 29 44 -3 9 -1 16 5 16 6 0 11 6 11 14 0 17 47 18
54 1 5 -14 -18 -38 -46 -48 -28 -10 -21 -22 22 -42 38 -17 41 -17 59 -1 11 10
24 15 30 12 6 -4 21 0 34 9 13 8 26 12 30 9 4 -4 17 0 29 8 13 8 48 23 78 33
30 10 60 21 65 25 6 5 14 8 20 8 15 1 18 22 3 22 -7 0 -23 3 -35 6 -17 5 -25
0 -34 -20 -9 -18 -16 -23 -24 -16 -7 5 -14 8 -17 5 -3 -3 -5 28 -4 70 1 63 3
74 16 69 35 -16 67 -15 83 1 10 9 25 14 35 11 16 -5 17 -1 14 31 -2 26 0 34 6
24 5 -7 15 -10 21 -7 6 4 16 -4 23 -18 6 -14 15 -26 20 -26 12 0 10 8 -8 35
-15 23 -15 24 9 31 18 4 24 11 20 22 -3 11 -2 13 4 6 4 -6 18 -14 29 -18 23
-7 38 -42 23 -52 -16 -10 -10 -32 11 -37 11 -3 20 -1 20 5 0 6 13 8 34 4 24
-5 39 -2 49 8 8 8 17 12 21 9 3 -4 6 3 6 15 0 24 15 30 24 10 3 -7 4 -4 1 8
-3 13 2 28 16 40 12 10 25 29 30 42 5 13 13 21 18 18 5 -4 0 12 -11 35 -27 57
-29 126 -3 145 17 13 20 13 27 -3 12 -32 8 -51 -12 -56 -33 -9 -23 -29 13 -26
18 2 38 0 45 -5 17 -10 32 2 26 22 -5 14 -4 14 4 3 9 -12 15 -13 36 -3 17 7
26 8 26 1 0 -5 7 -9 16 -7 10 2 19 -2 21 -9 2 -6 -6 -13 -19 -15 -20 -4 -21
-5 -5 -12 20 -9 46 16 47 45 1 48 140 90 140 43 0 -8 -4 -14 -9 -14 -5 0 -14
-13 -19 -29 -7 -19 -19 -31 -38 -35 -16 -4 -32 -12 -35 -17 -10 -16 -116 -24
-133 -10 -23 19 -39 4 -22 -21 8 -11 12 -27 9 -34 -7 -19 -43 -18 -43 1 0 32
-32 9 -35 -25 -1 -8 -5 -26 -9 -38 -7 -22 -6 -23 16 -17 12 3 35 20 49 36 15
17 29 25 35 20 5 -6 39 8 84 34 41 24 153 83 248 132 95 48 188 95 205 104 18
9 31 20 29 24 -2 4 -1 9 2 13 3 3 6 0 6 -6 0 -7 4 -12 9 -12 5 0 7 9 4 20 -3
11 -12 20 -19 20 -18 0 -17 10 1 34 15 20 15 20 30 0 13 -18 14 -17 13 17 -1
43 7 59 30 59 14 0 15 -2 3 -9 -12 -8 -12 -12 -2 -25 9 -11 10 -20 2 -35 -9
-17 -6 -51 5 -51 13 0 84 33 84 39 0 11 50 32 61 26 5 -4 9 -1 9 4 0 6 6 11
13 11 18 0 170 80 183 96 7 8 10 24 7 34 -6 22 13 28 20 8 3 -10 8 -10 21 1
14 12 19 12 25 2 6 -9 11 -8 21 4 7 8 21 15 31 15 12 0 23 11 29 26 13 32 13
34 -2 30 -7 -3 -25 -7 -40 -10 -15 -4 -39 -19 -53 -34 -20 -22 -25 -24 -25 -9
0 23 28 52 58 62 17 5 22 12 19 26 -3 13 5 30 26 50 29 30 31 30 44 13 12 -17
12 -19 -4 -23 -17 -3 -42 -29 -43 -43 0 -3 9 -4 20 -1 12 3 20 0 20 -7 0 -7 8
-19 17 -26 20 -14 43 -2 43 24 0 13 -3 12 -20 -3 -19 -18 -20 -17 -20 4 0 27
44 51 62 33 18 -18 38 -14 38 7 0 10 7 24 16 31 13 11 16 10 21 -9 5 -21 11
-23 45 -18 52 7 71 23 57 49 -6 11 -8 22 -5 25 9 9 26 -8 26 -28 0 -22 1 -23
34 -8 13 6 27 20 29 30 3 13 11 17 21 13 9 -3 16 -1 16 5 0 6 7 11 15 11 8 0
15 -5 15 -11 0 -5 5 -7 10 -4 12 7 13 45 2 45 -5 0 -14 11 -20 25 -6 14 -19
25 -28 25 -16 0 -16 2 1 20 10 11 21 17 25 15 4 -3 11 2 14 10 3 9 -1 18 -9
21 -12 5 -10 12 10 36 48 57 63 98 55 151 -8 52 -20 74 -20 36z m-179 -185 c1
3 3 11 4 16 1 6 3 13 4 16 0 3 5 2 11 -1 6 -4 4 -15 -5 -29 -9 -13 -14 -29
-13 -36 2 -7 -12 -14 -34 -16 -32 -4 -38 -2 -38 14 0 11 7 25 15 32 8 7 15 20
15 29 1 12 5 11 20 -8 11 -13 21 -20 21 -17z m-96 -70 c-11 -8 -25 -12 -33 -9
-7 2 -15 -2 -19 -10 -3 -10 -12 -13 -24 -10 -13 4 -19 1 -19 -8 0 -13 -39 -31
-48 -22 -16 16 93 75 138 75 24 -1 24 -1 5 -16z m211 -55 c3 -6 1 -16 -5 -22
-9 -9 -14 -8 -21 3 -5 8 -10 18 -10 23 0 11 28 8 36 -4z m-64 -34 c-5 -39 -5
-39 -33 -25 -23 13 -27 52 -4 44 8 -4 15 -1 15 5 0 6 6 11 13 11 9 0 12 -11 9
-35z m-214 -90 c-4 -11 -28 -16 -28 -6 0 12 13 22 23 18 5 -1 7 -7 5 -12z
m-546 -15 c10 0 18 -4 18 -10 0 -13 -36 -13 -62 1 -16 9 -18 13 -7 20 8 5 18
4 23 -1 6 -6 18 -10 28 -10z m138 -53 c0 -19 -47 -40 -53 -24 -3 9 -8 9 -18 0
-11 -11 -10 -13 4 -13 9 0 17 -4 17 -10 0 -11 31 -2 45 14 18 20 76 48 83 41
4 -4 1 -10 -5 -12 -7 -3 -13 -9 -13 -15 0 -6 6 -5 15 2 13 10 19 10 35 -5 24
-22 26 -37 5 -28 -9 3 -23 -1 -33 -9 -11 -10 -25 -12 -42 -7 -16 4 -19 7 -7 8
24 1 21 21 -3 21 -12 0 -24 -10 -30 -22 -5 -13 -9 -17 -9 -9 -1 8 -9 3 -22
-13 -23 -29 -62 -36 -57 -10 2 10 -3 19 -11 22 -10 3 -12 -2 -8 -19 9 -35 -12
-54 -58 -54 -30 0 -41 5 -43 18 -2 11 1 15 11 11 8 -3 18 -1 21 4 3 6 -1 13
-9 16 -13 4 -13 9 -3 25 6 10 17 17 24 14 6 -2 15 0 19 6 3 6 15 11 26 11 11
0 18 4 14 9 -7 13 35 58 60 63 22 4 45 -13 45 -35z m130 19 c0 -3 -4 -8 -10
-11 -5 -3 -10 -1 -10 4 0 6 5 11 10 11 6 0 10 -2 10 -4z m-384 -53 c-10 -10
-19 5 -10 18 6 11 8 11 12 0 2 -7 1 -15 -2 -18z m-39 -8 c2 -6 -5 -20 -15 -31
-10 -11 -19 -33 -20 -49 -3 -51 -8 -67 -25 -77 -9 -5 -21 -18 -27 -29 -9 -16
-7 -21 16 -29 20 -8 25 -15 21 -32 -4 -12 -2 -27 3 -32 5 -7 -4 -12 -28 -14
-20 -1 -39 -7 -43 -13 -9 -15 -52 8 -46 25 8 19 -38 8 -59 -15 -9 -10 -22 -19
-27 -19 -6 0 -21 -10 -34 -22 -17 -15 -36 -22 -73 -22 -27 -1 -55 -7 -62 -14
-6 -6 -24 -12 -39 -12 -15 0 -29 -5 -31 -12 -2 -6 -20 -12 -40 -13 -33 0 -36
2 -33 25 2 22 7 25 41 26 21 0 39 5 41 10 2 5 26 8 55 7 29 -1 58 3 66 9 9 8
16 8 20 1 4 -6 38 9 87 38 44 27 88 51 98 55 9 3 17 15 17 25 0 11 5 19 10 19
6 0 10 7 10 15 0 8 -8 15 -18 15 -10 0 -27 6 -38 14 -18 14 -18 15 9 25 37 14
66 43 49 49 -6 2 -12 9 -12 15 0 16 41 57 57 57 21 0 15 -16 -12 -34 -15 -10
-23 -22 -18 -28 5 -9 8 -9 11 0 2 7 10 12 18 12 8 0 14 5 14 10 0 6 7 10 15
10 12 0 14 7 9 26 -6 21 -4 25 11 22 10 -1 20 -8 22 -13z m353 -66 c0 -17 -27
-39 -47 -39 -10 0 -29 -7 -41 -16 -19 -13 -22 -13 -22 -1 0 20 21 36 58 43 18
4 32 10 32 15 0 5 5 9 10 9 6 0 10 -5 10 -11z m-510 -8 c0 -12 -20 -25 -27
-18 -7 7 6 27 18 27 5 0 9 -4 9 -9z m390 -30 c0 -6 -5 -13 -11 -17 -8 -5 -8
-9 1 -14 9 -5 9 -13 2 -27 -9 -15 -18 -19 -43 -15 l-32 5 27 14 c18 9 26 20
22 30 -3 8 -4 19 0 24 7 12 34 12 34 0z m-429 -25 c-7 -8 -10 -19 -7 -24 8
-13 -21 -49 -30 -39 -5 4 -3 17 4 27 11 18 9 20 -22 20 -21 0 -36 -6 -40 -15
-6 -17 -36 -21 -36 -5 0 6 7 10 15 10 8 0 15 6 15 14 0 18 31 30 40 16 4 -7
16 -6 35 4 33 17 44 14 26 -8z m285 -14 c-9 -8 -26 10 -26 26 1 15 2 15 15 -2
8 -11 13 -21 11 -24z m-71 18 c3 -5 1 -10 -4 -10 -6 0 -11 5 -11 10 0 6 2 10
4 10 3 0 8 -4 11 -10z m272 -16 c-3 -3 -12 -4 -19 -1 -8 3 -5 6 6 6 11 1 17
-2 13 -5z m-714 -21 c11 -10 -13 -33 -34 -33 -22 0 -24 11 -7 28 13 13 31 16
41 5z m158 -35 c-6 -7 -22 -26 -36 -41 -14 -15 -25 -34 -25 -42 0 -32 -16 -21
-17 11 -1 43 -8 51 -28 34 -8 -7 -15 -9 -15 -4 0 19 16 32 47 38 17 4 42 16
55 28 19 17 23 17 26 4 2 -8 -2 -21 -7 -28z m-81 22 c0 -5 -7 -10 -16 -10 -8
0 -12 5 -9 10 3 6 10 10 16 10 5 0 9 -4 9 -10z m188 -1 c-2 -6 -8 -10 -13 -10
-5 0 -11 4 -13 10 -2 6 4 11 13 11 9 0 15 -5 13 -11z m297 -39 c-3 -6 -18 -10
-33 -9 -15 0 -21 3 -14 6 6 2 12 11 12 18 0 7 6 15 13 18 14 5 31 -19 22 -33z
m-171 15 c-4 -8 -10 -12 -15 -9 -11 6 -2 24 11 24 5 0 7 -7 4 -15z m-539 -72
c0 -24 -4 -28 -30 -30 -21 -1 -23 0 -7 4 19 4 21 7 11 20 -10 12 -10 16 2 24
22 14 25 11 24 -18z m655 17 c0 -5 -4 -10 -10 -10 -5 0 -10 5 -10 10 0 6 5 10
10 10 6 0 10 -4 10 -10z m-620 -20 c0 -5 -5 -10 -11 -10 -5 0 -7 5 -4 10 3 6
8 10 11 10 2 0 4 -4 4 -10z m180 -13 c0 -18 -34 -49 -43 -40 -13 13 -7 42 11
46 29 8 32 7 32 -6z m175 -67 c8 0 15 5 15 10 0 15 26 12 40 -5 11 -13 8 -15
-19 -15 -21 0 -31 -5 -31 -15 0 -8 -5 -15 -11 -15 -5 0 -7 5 -4 10 3 6 -1 13
-9 16 -9 3 -16 16 -16 28 1 19 2 19 11 4 5 -10 17 -18 24 -18z m-379 -87 c-7
-7 -26 7 -26 19 0 6 6 6 15 -2 9 -7 13 -15 11 -17z m269 6 c-8 -12 -45 -12
-45 0 0 10 30 20 43 14 4 -3 5 -9 2 -14z m-491 -14 c4 -10 -1 -15 -14 -15 -12
0 -20 -7 -20 -17 0 -9 -3 -14 -6 -10 -4 3 -4 18 0 32 7 27 31 34 40 10z m-294
-85 c0 -5 -2 -10 -4 -10 -3 0 -8 5 -11 10 -3 6 -1 10 4 10 6 0 11 -4 11 -10z
m540 -30 c0 -18 -2 -19 -20 -8 -11 7 -20 16 -20 20 0 5 9 8 20 8 13 0 20 -7
20 -20z m-610 -4 c0 -3 -4 -8 -10 -11 -5 -3 -10 -1 -10 4 0 6 5 11 10 11 6 0
10 -2 10 -4z m-30 -26 c0 -5 -7 -10 -15 -10 -8 0 -15 5 -15 10 0 6 7 10 15 10
8 0 15 -4 15 -10z m545 -31 c-10 -15 -25 -10 -19 6 4 8 10 12 15 9 5 -3 7 -10
4 -15z m-663 -199 c-16 -17 -24 -20 -39 -11 -17 10 -17 10 3 11 12 0 27 7 34
15 7 9 15 13 17 11 3 -3 -4 -14 -15 -26z m13 -75 c-15 -10 -16 -14 -5 -15 11
0 11 -3 2 -12 -10 -10 -15 -10 -22 2 -6 9 -5 19 0 24 6 6 10 19 10 30 0 19 1
19 17 3 16 -16 16 -18 -2 -32z m-441 -51 c9 -23 8 -24 -14 -24 -11 0 -20 2
-20 4 0 12 13 36 20 36 4 0 11 -7 14 -16z m41 -44 c-3 -5 -1 -10 4 -10 6 0 11
-4 11 -10 0 -5 -12 -10 -27 -10 -25 0 -26 0 -8 20 19 21 30 27 20 10z m-61 -6
c9 -3 14 -10 11 -15 -7 -10 -35 0 -35 12 0 11 3 11 24 3z m-20 -67 c-8 -41
-10 -43 -29 -27 -8 7 -24 10 -35 7 -32 -8 -23 10 10 22 17 5 33 17 36 25 11
28 25 5 18 -27z"/>
<path d="M7295 2840 c-3 -5 -2 -10 4 -10 5 0 13 5 16 10 3 6 2 10 -4 10 -5 0
-13 -4 -16 -10z"/>
<path d="M7215 2829 c-10 -15 3 -25 16 -12 7 7 7 13 1 17 -6 3 -14 1 -17 -5z"/>
<path d="M6960 2710 c0 -5 5 -10 10 -10 6 0 10 5 10 10 0 6 -4 10 -10 10 -5 0
-10 -4 -10 -10z"/>
<path d="M6945 2661 c-6 -11 33 -71 47 -71 4 0 8 7 8 15 0 8 -7 15 -15 15 -8
0 -12 6 -9 13 6 17 -22 42 -31 28z"/>
<path d="M8666 3386 c3 -13 1 -40 -4 -60 -9 -32 -2 -49 12 -27 3 4 18 11 33
14 16 3 36 12 45 19 15 11 15 15 3 32 -12 16 -17 17 -30 6 -16 -13 -45 -7 -45
10 0 6 10 15 23 20 20 8 19 9 -11 9 -29 1 -32 -1 -26 -23z"/>
<path d="M8020 3380 c0 -5 5 -10 10 -10 6 0 10 5 10 10 0 6 -4 10 -10 10 -5 0
-10 -4 -10 -10z"/>
<path d="M8161 3364 c-12 -27 -7 -45 8 -28 14 14 23 54 13 54 -5 0 -14 -12
-21 -26z"/>
<path d="M7768 3352 c-9 -18 -14 -40 -11 -48 3 -7 0 -14 -6 -14 -6 0 -11 -8
-11 -17 1 -17 1 -17 11 0 5 9 17 17 24 17 17 0 20 16 5 25 -8 5 -7 11 0 20 7
8 10 22 8 32 -3 14 -7 10 -20 -15z"/>
<path d="M8255 3349 c-10 -15 3 -25 16 -12 7 7 7 13 1 17 -6 3 -14 1 -17 -5z"/>
<path d="M792 3316 c4 -5 3 -15 -3 -23 -9 -10 -6 -13 14 -13 14 0 33 -7 42
-16 9 -9 19 -14 22 -10 8 7 -16 36 -30 36 -6 0 -20 8 -31 17 -12 10 -18 14
-14 9z"/>
<path d="M7618 3256 c-22 -16 -13 -26 22 -26 28 0 59 25 46 37 -3 3 -6 0 -6
-7 0 -11 -3 -11 -12 -2 -15 15 -29 15 -50 -2z"/>
<path d="M915 3230 c3 -5 8 -10 11 -10 2 0 4 5 4 10 0 6 -5 10 -11 10 -5 0 -7
-4 -4 -10z"/>
<path d="M8420 3209 c0 -5 5 -7 10 -4 6 3 10 8 10 11 0 2 -4 4 -10 4 -5 0 -10
-5 -10 -11z"/>
<path d="M7380 3141 c0 -17 28 -43 38 -37 20 12 13 33 -13 38 -14 3 -25 2 -25
-1z"/>
<path d="M5745 3130 c-3 -5 -1 -10 4 -10 6 0 11 5 11 10 0 6 -2 10 -4 10 -3 0
-8 -4 -11 -10z"/>
<path d="M7180 3125 c-7 -9 -11 -18 -8 -20 3 -3 11 1 18 10 7 9 11 18 8 20 -3
3 -11 -1 -18 -10z"/>
<path d="M1306 3102 c-3 -6 -1 -14 5 -17 15 -10 25 3 12 16 -7 7 -13 7 -17 1z"/>
<path d="M1504 3065 c-16 -24 -18 -25 -35 -9 -29 26 -34 10 -8 -25 22 -30 49
-41 49 -21 0 16 63 12 88 -6 12 -8 22 -12 22 -8 0 13 -53 64 -67 64 -7 0 -13
7 -13 15 0 23 -18 18 -36 -10z"/>
<path d="M1125 3041 c-7 -23 15 -50 43 -51 14 0 7 17 -21 54 -14 19 -15 19
-22 -3z"/>
<path d="M7690 3040 c0 -13 5 -20 13 -17 6 2 12 10 12 17 0 7 -6 15 -12 18 -8
2 -13 -5 -13 -18z"/>
<path d="M7740 3045 c0 -8 5 -15 10 -15 6 0 10 7 10 15 0 8 -4 15 -10 15 -5 0
-10 -7 -10 -15z"/>
<path d="M6861 2999 c-10 -11 -25 -21 -32 -23 -8 -1 -30 -16 -49 -34 -19 -18
-44 -32 -55 -31 -36 2 -40 -1 -18 -16 18 -12 21 -22 16 -45 -5 -29 -5 -30 18
-18 14 7 38 23 56 36 17 12 35 22 40 22 5 0 16 21 24 48 9 30 23 51 37 57 12
5 22 13 22 17 0 16 -40 7 -59 -13z m-31 -88 c0 -6 -4 -13 -10 -16 -5 -3 -10 1
-10 9 0 9 5 16 10 16 6 0 10 -4 10 -9z"/>
<path d="M1655 2956 c15 -23 17 -24 33 -8 17 16 16 17 -3 24 -40 13 -46 9 -30
-16z"/>
<path d="M6903 2935 c4 -12 67 -15 67 -3 0 9 -3 10 -43 12 -15 1 -26 -3 -24
-9z"/>
<path d="M1566 2922 c-3 -6 -1 -14 5 -17 14 -9 20 -2 10 14 -6 8 -11 9 -15 3z"/>
<path d="M1766 2891 c-4 -7 -5 -15 -2 -18 9 -9 19 4 14 18 -4 11 -6 11 -12 0z"/>
<path d="M1680 2880 c0 -5 5 -10 11 -10 5 0 7 5 4 10 -3 6 -8 10 -11 10 -2 0
-4 -4 -4 -10z"/>
<path d="M1985 2881 c-7 -13 -6 -13 35 -15 17 0 29 4 27 9 -5 14 -54 18 -62 6z"/>
<path d="M6649 2861 c-12 -16 -35 -33 -50 -36 -29 -6 -50 -25 -29 -25 26 0 80
31 96 54 24 38 10 44 -17 7z"/>
<path d="M1550 2859 c0 -5 5 -7 10 -4 6 3 10 8 10 11 0 2 -4 4 -10 4 -5 0 -10
-5 -10 -11z"/>
<path d="M1840 2850 c0 -5 5 -10 11 -10 5 0 7 5 4 10 -3 6 -8 10 -11 10 -2 0
-4 -4 -4 -10z"/>
<path d="M1670 2829 l-25 -20 32 6 c18 4 34 2 38 -5 3 -5 10 -8 15 -5 5 3 0
15 -10 25 -24 24 -19 24 -50 -1z"/>
<path d="M1835 2810 c-18 -8 -17 -9 8 -9 16 -1 26 3 22 9 -3 6 -7 10 -8 9 -1
0 -11 -4 -22 -9z"/>
<path d="M6487 2793 c-4 -3 -32 -7 -64 -8 -31 -1 -58 -6 -60 -11 -2 -6 20 -9
54 -8 62 2 93 10 93 25 0 10 -14 12 -23 2z"/>
<path d="M1570 2750 c-11 -7 -8 -11 15 -19 17 -6 38 -16 48 -22 27 -15 30 -6
7 21 -23 27 -48 34 -70 20z"/>
<path d="M1670 2753 c0 -11 21 -33 32 -33 4 0 8 8 8 17 0 9 -3 13 -7 10 -3 -4
-12 -2 -20 4 -7 6 -13 7 -13 2z"/>
<path d="M2250 2735 c0 -27 12 -45 30 -45 11 0 22 -5 25 -10 5 -8 11 -7 21 1
21 17 17 31 -6 24 -13 -4 -28 2 -45 19 -16 16 -25 20 -25 11z"/>
<path d="M2190 2729 c0 -5 5 -7 10 -4 6 3 10 8 10 11 0 2 -4 4 -10 4 -5 0 -10
-5 -10 -11z"/>
<path d="M6224 2725 c-4 -8 -10 -12 -15 -9 -6 3 -16 1 -23 -5 -8 -7 -20 -10
-27 -9 -7 2 -21 -15 -32 -37 -10 -22 -29 -51 -40 -64 -19 -21 -20 -23 -4 -18
17 6 18 3 12 -33 -4 -22 -3 -40 2 -39 22 2 68 38 71 56 2 15 13 22 42 27 52 8
106 45 102 69 -2 10 -15 22 -28 27 -14 6 -24 18 -24 30 0 23 -28 27 -36 5z
m-8 -63 c-20 -8 -36 -20 -36 -27 0 -7 -14 -15 -32 -17 -27 -4 -29 -3 -14 8 10
7 15 17 11 23 -7 12 41 36 63 32 6 -1 12 3 12 10 0 8 5 8 16 -2 13 -11 11 -14
-20 -27z"/>
<path d="M2355 2710 c3 -5 8 -10 11 -10 2 0 4 5 4 10 0 6 -5 10 -11 10 -5 0
-7 -4 -4 -10z"/>
<path d="M2567 2713 c-14 -4 -15 -8 -7 -18 14 -17 50 -8 43 11 -5 15 -6 15
-36 7z"/>
<path d="M6383 2693 c-12 -2 -27 -10 -33 -18 -15 -18 -3 -62 12 -47 6 6 23 8
38 5 15 -3 31 0 34 6 4 6 2 11 -3 11 -6 0 -10 10 -8 21 2 24 -6 28 -40 22z"/>
<path d="M1790 2669 c0 -5 5 -7 10 -4 6 3 10 8 10 11 0 2 -4 4 -10 4 -5 0 -10
-5 -10 -11z"/>
<path d="M2253 2673 c-20 -7 -15 -23 7 -23 11 0 20 4 20 9 0 13 -12 19 -27 14z"/>
<path d="M2528 2643 c-4 -19 8 -47 30 -71 17 -19 15 2 -3 38 -9 17 -15 32 -14
36 2 16 -10 13 -13 -3z"/>
<path d="M1785 2639 c-4 -6 -3 -15 3 -21 6 -6 11 -4 15 6 7 18 -9 31 -18 15z"/>
<path d="M2190 2639 c0 -6 -8 -8 -19 -4 -11 3 -22 2 -25 -4 -3 -5 6 -12 21
-16 17 -4 29 -2 34 7 12 18 11 28 -1 28 -5 0 -10 -5 -10 -11z"/>
<path d="M2580 2640 c0 -5 5 -10 10 -10 6 0 10 5 10 10 0 6 -4 10 -10 10 -5 0
-10 -4 -10 -10z"/>
<path d="M2437 2633 c-4 -3 -7 -11 -7 -16 0 -6 3 -7 7 -4 3 4 13 1 21 -6 13
-10 14 -9 3 11 -13 24 -14 25 -24 15z"/>
<path d="M2600 2604 c0 -14 24 -51 44 -66 28 -23 43 -23 23 0 -10 10 -17 22
-17 25 0 8 -38 47 -45 47 -3 0 -5 -3 -5 -6z"/>
<path d="M7096 2601 c-4 -7 -5 -15 -2 -18 9 -9 19 4 14 18 -4 11 -6 11 -12 0z"/>
<path d="M2328 2583 c7 -3 16 -2 19 1 4 3 -2 6 -13 5 -11 0 -14 -3 -6 -6z"/>
<path d="M2790 2580 c0 -5 5 -10 10 -10 6 0 10 5 10 10 0 6 -4 10 -10 10 -5 0
-10 -4 -10 -10z"/>
<path d="M2430 2520 c0 -5 4 -10 8 -10 5 0 15 -11 22 -25 10 -19 16 -22 21
-12 14 25 -1 57 -27 57 -13 0 -24 -4 -24 -10z"/>
<path d="M2280 2506 c0 -9 7 -16 15 -16 8 0 17 0 20 0 8 0 6 15 -2 15 -5 0
-14 4 -20 8 -9 5 -13 3 -13 -7z"/>
<path d="M2373 2508 c2 -7 10 -13 17 -13 7 0 15 6 18 13 2 7 -5 12 -18 12 -13
0 -20 -5 -17 -12z"/>
<path d="M5930 2510 c0 -5 7 -10 15 -10 8 0 15 5 15 10 0 6 -7 10 -15 10 -8 0
-15 -4 -15 -10z"/>
<path d="M6040 2510 c0 -5 7 -10 16 -10 8 0 12 5 9 10 -3 6 -10 10 -16 10 -5
0 -9 -4 -9 -10z"/>
<path d="M6067 2472 c-23 -25 -10 -35 14 -11 10 10 19 21 19 24 0 11 -18 4
-33 -13z"/>
<path d="M6002 2469 c2 -6 8 -10 13 -10 5 0 11 4 13 10 2 6 -4 11 -13 11 -9 0
-15 -5 -13 -11z"/>
<path d="M2744 2458 c3 -7 9 -21 12 -30 4 -10 14 -18 23 -18 9 0 21 -8 28 -19
6 -10 21 -21 32 -24 18 -4 20 -2 15 21 -8 32 -33 64 -45 56 -5 -2 -23 2 -40
11 -23 13 -30 13 -25 3z"/>
<path d="M5793 2444 c-7 -19 0 -26 21 -18 20 8 21 20 1 28 -9 3 -18 -1 -22
-10z"/>
<path d="M5865 2450 c-3 -6 1 -7 9 -4 10 4 16 1 16 -9 0 -8 7 -17 15 -21 13
-5 13 -2 -1 19 -17 27 -29 31 -39 15z"/>
<path d="M2370 2440 c0 -6 7 -10 15 -10 8 0 15 2 15 4 0 2 -7 6 -15 10 -8 3
-15 1 -15 -4z"/>
<path d="M2885 2420 c3 -5 8 -10 11 -10 2 0 4 5 4 10 0 6 -5 10 -11 10 -5 0
-7 -4 -4 -10z"/>
<path d="M5580 2420 c0 -5 5 -10 10 -10 6 0 10 5 10 10 0 6 -4 10 -10 10 -5 0
-10 -4 -10 -10z"/>
<path d="M5500 2403 c0 -11 3 -14 8 -7 4 6 14 14 22 17 10 4 8 6 -7 6 -16 1
-23 -5 -23 -16z"/>
<path d="M2566 2395 c-3 -8 -16 -15 -30 -15 -27 0 -42 -15 -26 -25 6 -4 17 -1
25 5 8 6 23 9 35 5 16 -5 20 -2 20 14 0 25 -16 36 -24 16z"/>
<path d="M5500 2352 c0 -11 -9 -27 -20 -37 -27 -24 -25 -39 5 -53 25 -12 26
-11 23 24 -2 26 3 40 17 50 17 13 18 16 5 24 -22 14 -30 12 -30 -8z"/>
<path d="M6384 2346 c-10 -8 -16 -17 -12 -21 8 -8 48 13 48 25 0 14 -13 12
-36 -4z"/>
<path d="M5580 2323 c0 -21 2 -24 15 -13 8 7 15 16 15 20 0 4 -7 10 -15 14
-11 4 -15 -2 -15 -21z"/>
<path d="M5637 2324 c-8 -8 1 -24 14 -24 5 0 9 7 9 15 0 15 -12 20 -23 9z"/>
<path d="M6022 2310 c-16 -27 -17 -49 0 -32 7 7 22 12 35 12 26 0 31 25 7 34
-24 9 -28 8 -42 -14z"/>
<path d="M6125 2321 c-19 -8 -19 -8 3 -20 19 -10 22 -9 22 9 0 11 -1 20 -2 19
-2 0 -12 -4 -23 -8z"/>
<path d="M2772 2309 c2 -7 10 -15 17 -17 8 -3 12 1 9 9 -2 7 -10 15 -17 17 -8
3 -12 -1 -9 -9z"/>
<path d="M5950 2265 c0 -16 16 -20 24 -6 3 5 -1 11 -9 15 -9 3 -15 0 -15 -9z"/>
<path d="M5543 2243 c-27 -21 -34 -23 -53 -11 -19 12 -24 10 -46 -17 -13 -16
-24 -37 -24 -46 0 -9 -13 -26 -30 -39 -35 -27 -37 -36 -10 -45 11 -3 20 -13
20 -21 0 -8 7 -14 15 -14 18 0 19 5 4 32 -15 28 5 64 40 71 14 3 38 17 53 31
18 17 28 21 32 13 3 -8 9 -7 19 6 8 9 22 17 33 17 16 0 16 1 2 13 -9 6 -17 17
-19 23 -3 8 -16 3 -36 -13z"/>
<path d="M3036 2231 c-4 -7 -5 -15 -2 -18 9 -9 19 4 14 18 -4 11 -6 11 -12 0z"/>
<path d="M3085 2220 c3 -5 8 -10 11 -10 2 0 4 5 4 10 0 6 -5 10 -11 10 -5 0
-7 -4 -4 -10z"/>
<path d="M5405 2220 c-3 -5 1 -10 9 -10 9 0 16 5 16 10 0 6 -4 10 -9 10 -6 0
-13 -4 -16 -10z"/>
<path d="M3110 2206 c0 -15 28 -34 61 -41 l34 -7 -23 21 c-12 12 -27 19 -33
16 -5 -4 -16 -1 -24 5 -8 7 -15 9 -15 6z"/>
<path d="M3031 2174 c0 -11 3 -14 6 -6 3 7 2 16 -1 19 -3 4 -6 -2 -5 -13z"/>
<path d="M5610 2179 c0 -5 5 -7 10 -4 6 3 10 8 10 11 0 2 -4 4 -10 4 -5 0 -10
-5 -10 -11z"/>
<path d="M2842 2150 c-9 -15 -8 -19 4 -24 23 -9 24 -8 24 13 0 28 -14 33 -28
11z"/>
<path d="M3198 2132 c-16 -2 -28 -8 -28 -14 0 -7 13 -8 35 -5 30 5 35 3 35
-14 0 -10 5 -19 10 -19 16 0 11 26 -7 41 -10 8 -30 13 -45 11z"/>
<path d="M6010 2136 c0 -2 7 -6 15 -10 8 -3 15 -1 15 4 0 6 -7 10 -15 10 -8 0
-15 -2 -15 -4z"/>
<path d="M6074 2118 c3 -13 6 -33 6 -46 0 -13 4 -20 10 -17 6 4 8 10 5 15 -3
4 0 10 6 12 7 2 7 12 -2 31 -15 33 -34 36 -25 5z"/>
<path d="M5467 2116 c-16 -12 -16 -14 -1 -20 20 -8 34 1 34 20 0 17 -10 17
-33 0z"/>
<path d="M5884 2101 c4 -6 2 -11 -4 -11 -6 0 -8 -5 -4 -11 4 -8 9 -7 16 2 7
11 11 11 15 2 7 -18 21 -16 26 5 4 13 5 11 6 -5 1 -28 11 -29 34 -3 21 25 22
37 2 20 -9 -8 -20 -9 -27 -3 -19 13 -72 17 -64 4z"/>
<path d="M3545 2090 c-3 -6 6 -15 22 -21 15 -5 31 -16 35 -22 5 -8 8 -6 8 5 0
21 -56 53 -65 38z"/>
<path d="M3280 2071 c0 -5 19 -16 42 -26 23 -9 48 -24 55 -33 11 -16 12 -15
13 4 0 13 -11 29 -27 40 -31 19 -83 29 -83 15z"/>
<path d="M5160 2060 c-8 -5 -11 -12 -7 -16 4 -4 13 -2 19 4 15 15 7 24 -12 12z"/>
<path d="M3430 2050 c20 -13 33 -13 25 0 -3 6 -14 10 -23 10 -15 0 -15 -2 -2
-10z"/>
<path d="M3200 2034 c0 -8 5 -12 10 -9 6 3 10 10 10 16 0 5 -4 9 -10 9 -5 0
-10 -7 -10 -16z"/>
<path d="M3475 2039 c-11 -17 1 -21 15 -4 8 9 8 15 2 15 -6 0 -14 -5 -17 -11z"/>
<path d="M5960 2040 c0 -5 4 -10 9 -10 6 0 13 5 16 10 3 6 -1 10 -9 10 -9 0
-16 -4 -16 -10z"/>
<path d="M4921 2016 c-7 -8 -22 -17 -35 -20 -29 -7 -37 -40 -21 -86 l11 -34
29 38 c15 20 25 39 22 42 -9 9 -27 -5 -27 -21 0 -7 -7 -15 -15 -19 -20 -7 -19
3 5 42 11 18 31 38 45 44 14 6 25 15 25 20 0 13 -26 9 -39 -6z"/>
<path d="M3075 2010 c3 -5 11 -10 16 -10 6 0 7 5 4 10 -3 6 -11 10 -16 10 -6
0 -7 -4 -4 -10z"/>
<path d="M3246 1981 c-4 -7 -5 -15 -2 -18 9 -9 19 4 14 18 -4 11 -6 11 -12 0z"/>
<path d="M5056 1975 c-15 -12 -17 -17 -7 -29 7 -8 10 -20 6 -27 -9 -14 33 8
54 28 11 12 9 13 -14 7 -25 -6 -28 -5 -22 15 3 11 4 21 4 21 -1 0 -11 -7 -21
-15z"/>
<path d="M3461 1971 c-7 -5 -10 -14 -7 -20 11 -17 22 -13 22 9 0 11 0 20 -1
20 0 0 -6 -4 -14 -9z"/>
<path d="M3530 1970 c0 -5 5 -10 11 -10 5 0 7 5 4 10 -3 6 -8 10 -11 10 -2 0
-4 -4 -4 -10z"/>
<path d="M3300 1950 c0 -15 21 -23 32 -12 6 6 2 11 -11 15 -12 3 -21 1 -21 -3z"/>
<path d="M4790 1905 c0 -32 2 -36 15 -25 11 9 12 17 3 34 -17 33 -18 32 -18
-9z"/>
<path d="M5146 1901 c-45 -7 -57 -25 -27 -41 17 -9 27 -6 51 11 16 12 27 26
24 31 -3 4 -6 7 -7 7 -1 -1 -20 -5 -41 -8z"/>
<path d="M3630 1887 c0 -9 6 -18 13 -18 6 -1 17 -2 22 -3 6 0 26 -16 45 -33
20 -19 37 -28 39 -21 5 14 -58 67 -79 68 -9 0 -21 5 -28 12 -9 9 -12 8 -12 -5z"/>
<path d="M3460 1881 c0 -5 7 -14 15 -21 16 -14 18 -10 9 14 -6 17 -24 22 -24
7z"/>
<path d="M4956 1879 c8 -13 -13 -29 -38 -29 -11 0 -15 5 -12 15 10 26 -14 16
-35 -14 -11 -16 -36 -36 -56 -45 -19 -9 -35 -22 -35 -28 0 -6 -10 -8 -24 -4
-16 4 -29 0 -41 -14 -14 -15 -21 -17 -31 -9 -17 14 -44 5 -44 -14 0 -10 -8
-13 -26 -9 -24 4 -25 2 -19 -18 7 -24 0 -25 -45 -6 -9 4 -25 -2 -37 -13 -11
-11 -23 -17 -26 -15 -3 3 -18 -1 -35 -10 -22 -12 -32 -12 -41 -3 -10 9 -18 6
-37 -17 l-25 -29 -39 18 c-45 20 -80 14 -60 -10 7 -8 22 -15 34 -15 35 0 52
-16 37 -33 -7 -9 -8 -18 -3 -21 6 -3 13 1 16 9 4 12 10 13 25 6 16 -9 18 -8
14 9 -4 15 2 22 21 30 15 5 24 14 21 20 -3 6 1 7 10 4 20 -8 72 13 79 32 8 21
64 18 68 -3 3 -16 5 -16 23 2 25 24 75 48 75 35 0 -5 -9 -16 -21 -24 -12 -8
-18 -19 -15 -25 4 -5 -4 -15 -16 -22 -13 -7 -27 -18 -31 -25 -4 -8 -16 -14
-26 -14 -19 0 -51 -30 -51 -47 0 -6 -5 -13 -12 -15 -6 -2 -9 -12 -5 -21 5 -14
11 -15 37 -5 18 6 34 18 38 26 8 22 35 52 45 52 5 0 4 -7 -3 -15 -20 -24 -4
-29 19 -6 12 12 27 21 35 21 8 0 16 7 20 15 3 8 11 13 18 11 7 -1 10 -1 6 1
-12 7 -10 43 2 43 6 0 10 6 10 13 0 7 23 21 50 32 45 18 65 35 40 35 -14 0 -1
28 17 34 9 4 24 -1 34 -10 21 -19 39 -11 39 17 0 16 -4 19 -21 14 -15 -5 -19
-4 -15 4 4 6 18 11 31 11 13 0 27 5 30 10 4 6 12 9 18 8 16 -4 87 39 87 52 0
13 -6 13 -31 0 -15 -8 -19 -7 -19 5 0 8 -7 15 -16 15 -8 0 -12 -5 -8 -11z
m-191 -129 c-3 -5 -11 -10 -16 -10 -6 0 -7 5 -4 10 3 6 11 10 16 10 6 0 7 -4
4 -10z"/>
<path d="M5565 1860 c-3 -6 1 -7 9 -4 18 7 21 14 7 14 -6 0 -13 -4 -16 -10z"/>
<path d="M4612 1837 c2 -19 7 -22 40 -19 42 4 53 22 14 22 -14 0 -28 5 -31 10
-11 18 -25 10 -23 -13z"/>
<path d="M4813 1846 c-23 -11 -31 -26 -14 -26 10 0 41 28 41 36 0 2 -1 3 -2 3
-2 -1 -13 -6 -25 -13z"/>
<path d="M5069 1838 c-1 -7 0 -26 1 -41 1 -26 0 -27 -18 -18 -11 6 -23 18 -26
27 -5 13 -9 15 -18 6 -7 -7 -20 -12 -30 -12 -22 0 -43 -36 -27 -46 6 -3 14 -2
18 3 3 6 16 15 28 21 17 9 22 9 27 -3 3 -8 15 -15 26 -15 21 0 27 -14 10 -25
-17 -11 -11 -35 9 -35 21 0 39 59 21 70 -13 8 -2 42 18 54 12 7 12 10 1 17
-20 13 -39 11 -40 -3z"/>
<path d="M3535 1790 c-3 -5 -2 -10 4 -10 5 0 13 5 16 10 3 6 2 10 -4 10 -5 0
-13 -4 -16 -10z"/>
<path d="M4335 1780 c3 -5 18 -10 33 -10 21 0 24 2 12 10 -20 13 -53 13 -45 0z"/>
<path d="M4482 1778 c-7 -7 -12 -15 -12 -19 0 -11 63 6 68 19 5 16 -40 16 -56
0z"/>
<path d="M3630 1748 c0 -16 5 -28 10 -28 13 0 13 20 0 40 -8 12 -10 9 -10 -12z"/>
<path d="M3891 1754 c0 -11 3 -14 6 -6 3 7 2 16 -1 19 -3 4 -6 -2 -5 -13z"/>
<path d="M3820 1728 c0 -5 -11 -6 -25 -2 -16 4 -25 2 -25 -6 0 -9 13 -10 45
-6 39 6 45 5 45 -11 0 -10 11 -23 24 -29 24 -11 24 -10 13 15 -6 14 -15 32
-20 38 -10 14 -57 14 -57 1z"/>
<path d="M4973 1723 c-13 -8 -23 -23 -23 -32 0 -10 3 -12 8 -5 4 6 17 16 30
23 12 6 22 16 22 21 0 14 -11 12 -37 -7z"/>
<path d="M3686 1704 c-4 -10 3 -14 25 -14 32 0 32 14 0 23 -12 3 -22 -1 -25
-9z"/>
<path d="M4814 1699 c-10 -12 -17 -24 -14 -28 3 -3 -5 -7 -17 -9 -13 -2 -23
-8 -23 -13 0 -5 -7 -9 -15 -9 -8 0 -15 -4 -15 -10 0 -14 23 -13 38 2 6 6 15 8
19 4 5 -4 -3 -16 -16 -27 -30 -24 -21 -24 40 2 52 23 60 33 33 43 -15 6 -15 9
5 29 11 13 21 26 21 30 0 15 -38 6 -56 -14z"/>
<path d="M4890 1705 c-10 -12 -10 -15 4 -15 9 0 16 7 16 15 0 8 -2 15 -4 15
-2 0 -9 -7 -16 -15z"/>
<path d="M4277 1674 c3 -8 11 -14 19 -14 21 0 17 17 -5 23 -14 3 -18 1 -14 -9z"/>
<path d="M4977 1679 c-10 -6 -26 -8 -35 -4 -9 3 -13 3 -9 -1 10 -10 -33 -55
-45 -48 -12 7 -58 -15 -74 -35 -7 -9 -36 -15 -79 -17 -76 -4 -86 -8 -61 -27
16 -12 17 -17 6 -37 -7 -13 -15 -18 -19 -13 -11 19 -91 5 -132 -22 -22 -14
-37 -30 -34 -35 3 -5 26 5 50 21 44 30 65 31 65 4 0 -19 68 3 81 27 12 22 29
24 29 2 0 -12 5 -14 18 -9 9 4 27 10 40 12 22 5 31 23 12 23 -5 0 -10 4 -10
10 0 5 7 7 15 4 10 -4 15 0 15 14 0 12 4 23 9 26 5 3 8 -2 7 -12 -1 -14 6 -17
37 -15 21 2 50 9 65 16 15 8 47 24 72 36 l45 22 -42 -5 c-51 -5 -54 5 -13 36
44 32 34 54 -13 27z m-107 -105 c0 -2 -7 -4 -15 -4 -8 0 -15 4 -15 10 0 5 7 7
15 4 8 -4 15 -8 15 -10z"/>
<path d="M5060 1640 c0 -5 5 -10 11 -10 5 0 7 5 4 10 -3 6 -8 10 -11 10 -2 0
-4 -4 -4 -10z"/>
<path d="M4048 1553 c7 -3 16 -2 19 1 4 3 -2 6 -13 5 -11 0 -14 -3 -6 -6z"/>
<path d="M4437 1512 c-19 -21 -13 -32 15 -32 13 0 18 7 18 25 0 30 -11 32 -33
7z"/>
<path d="M4200 1480 c0 -5 5 -10 11 -10 5 0 7 5 4 10 -3 6 -8 10 -11 10 -2 0
-4 -4 -4 -10z"/>
<path d="M4659 1447 c6 -8 7 -18 3 -22 -4 -5 -2 -5 5 -1 14 8 6 36 -9 36 -7 0
-6 -5 1 -13z"/>
<path d="M4370 1436 c0 -9 5 -16 10 -16 6 0 10 4 10 9 0 6 -4 13 -10 16 -5 3
-10 -1 -10 -9z"/>
<path d="M4580 1440 c0 -5 5 -10 10 -10 6 0 10 5 10 10 0 6 -4 10 -10 10 -5 0
-10 -4 -10 -10z"/>
<path d="M4520 1420 c0 -5 -11 -10 -25 -10 -16 0 -25 -6 -25 -15 0 -12 7 -14
28 -9 45 11 73 44 37 44 -8 0 -15 -4 -15 -10z"/>
<path d="M4290 1390 c0 -6 7 -10 15 -10 8 0 15 2 15 4 0 2 -7 6 -15 10 -8 3
-15 1 -15 -4z"/>
</g>
</svg>
